<svg width="277" height="255" viewBox="0 0 277 255" fill="none" xmlns="http://www.w3.org/2000/svg">
<path d="M277 254.275C277 254.363 214.984 254.439 138.506 254.439C62.0283 254.439 0 254.363 0 254.275C0 254.186 62.0031 254.111 138.506 254.111C215.01 254.111 277 254.186 277 254.275Z" fill="#9EB3FB"/>
<g filter="url(#filter0_d_4_1836)">
<path d="M172.197 125.086H123.122L113.748 138.999L104.601 125.086H56.3973C53.3167 125.086 50.8169 122.586 50.8169 119.506V23.8939C50.8169 20.8133 53.3167 18.3135 56.3973 18.3135H172.191C175.271 18.3135 177.771 20.8133 177.771 23.8939V119.506C177.771 122.586 175.271 125.086 172.191 125.086H172.197Z" fill="white"/>
<path d="M172.197 125.086C172.197 125.086 172.298 125.073 172.507 125.061C172.709 125.061 173.012 125.017 173.409 124.934C174.179 124.758 175.372 124.316 176.408 123.116C176.919 122.529 177.361 121.74 177.582 120.8C177.651 120.566 177.664 120.32 177.708 120.074C177.714 119.821 177.74 119.569 177.733 119.297C177.733 118.767 177.733 118.211 177.733 117.637C177.733 115.333 177.727 112.675 177.721 109.689C177.708 97.7205 177.689 80.4175 177.67 59.0302C177.67 48.3365 177.658 36.6202 177.651 24.0453C177.689 22.505 177.058 20.9521 175.896 19.8979C175.322 19.3676 174.634 18.9636 173.889 18.7174C173.138 18.4523 172.355 18.4334 171.534 18.4523C168.283 18.4523 164.982 18.4523 161.636 18.4523C154.938 18.4523 148.045 18.4523 140.975 18.4586C126.834 18.4586 111.993 18.4586 96.603 18.4712C88.9078 18.4712 81.0801 18.4712 73.1325 18.4712C69.1618 18.4712 65.1596 18.4712 61.1321 18.4712C60.122 18.4712 59.1183 18.4712 58.1083 18.4712H56.5933C56.3344 18.4712 56.1009 18.4902 55.8547 18.5028C55.6148 18.547 55.3623 18.5596 55.1287 18.6354C54.1692 18.8626 53.2854 19.374 52.5847 20.062C51.8966 20.7691 51.379 21.6528 51.1581 22.6187C50.9245 23.4835 51.0192 24.4052 51.0002 25.3268V28.0791C51.0002 29.9098 51.0002 31.7405 51.0002 33.5585C51.0002 37.2009 51.0002 40.8244 51.0002 44.4226C51.0002 51.6191 51.0002 58.7208 51.0002 65.709C51.0002 79.6915 51.0002 93.2385 50.9939 106.23C50.9939 109.475 50.9939 112.688 50.9939 115.863C50.9939 116.659 50.9939 117.448 50.9939 118.237C51.0065 119.026 50.9434 119.815 51.1012 120.56C51.3916 122.062 52.3575 123.4 53.6579 124.164C54.3018 124.549 55.034 124.802 55.7726 124.89C56.5112 124.966 57.294 124.922 58.0578 124.934C59.5855 124.934 61.1068 124.934 62.6156 124.934C65.633 124.934 68.6126 124.934 71.5543 124.934C83.3022 124.934 94.3683 124.947 104.633 124.953H104.702L104.74 125.01C107.934 129.871 110.983 134.517 113.874 138.93H113.685C117.024 133.98 120.156 129.341 123.072 125.023L123.104 124.979H123.154C138.677 124.998 150.942 125.017 159.332 125.023C163.524 125.035 166.743 125.042 168.921 125.048C170.007 125.048 170.827 125.061 171.389 125.061C171.945 125.061 172.222 125.073 172.222 125.073C172.222 125.073 171.938 125.08 171.389 125.086C170.834 125.086 170.007 125.092 168.921 125.099C166.743 125.099 163.517 125.111 159.332 125.124C150.942 125.136 138.677 125.149 123.154 125.168L123.236 125.124C120.326 129.448 117.208 134.088 113.874 139.043L113.78 139.182L113.685 139.037C110.781 134.631 107.732 129.991 104.532 125.13L104.633 125.187C94.3683 125.187 83.3022 125.2 71.5543 125.206C68.6189 125.206 65.6393 125.206 62.6156 125.206C61.1068 125.206 59.5855 125.206 58.0578 125.206C57.2877 125.193 56.5365 125.244 55.7411 125.162C54.9583 125.067 54.1881 124.808 53.5064 124.398C52.1365 123.59 51.1139 122.182 50.8109 120.591C50.6467 119.79 50.7162 118.988 50.6972 118.211C50.6972 117.422 50.6972 116.633 50.6972 115.838C50.6972 112.663 50.6972 109.449 50.6972 106.205C50.6972 93.2196 50.6972 79.6726 50.6909 65.6837C50.6909 58.6893 50.6909 51.5875 50.6909 44.3974C50.6909 40.7992 50.6909 37.1757 50.6909 33.5333C50.6909 31.7089 50.6909 29.8846 50.6909 28.0539C50.6909 27.1385 50.6909 26.2232 50.6909 25.3016V23.9254C50.6972 23.4583 50.7351 22.9785 50.855 22.5177C51.0949 21.495 51.6378 20.5544 52.3701 19.8095C53.115 19.0773 54.0493 18.5344 55.0719 18.2945C55.3244 18.2187 55.5832 18.1998 55.8421 18.1556C56.1009 18.143 56.366 18.1177 56.6185 18.124H58.1336C59.1436 18.124 60.1536 18.124 61.1573 18.124C65.1848 18.124 69.187 18.124 73.1577 18.124C81.1054 18.124 88.9331 18.124 96.6282 18.124C112.012 18.124 126.86 18.1304 141 18.1367C148.07 18.1367 154.964 18.1367 161.661 18.143C165.013 18.143 168.309 18.143 171.56 18.143C172.361 18.124 173.22 18.143 174.003 18.4271C174.785 18.6859 175.511 19.1151 176.111 19.6706C176.711 20.2262 177.197 20.9079 177.506 21.6528C177.822 22.404 177.954 23.2184 177.948 24.0201C177.942 36.5949 177.935 48.3112 177.929 59.0049C177.91 80.3922 177.891 97.7016 177.879 109.664C177.879 112.656 177.866 115.308 177.866 117.612C177.866 118.186 177.866 118.742 177.866 119.272C177.866 119.537 177.847 119.802 177.834 120.055C177.79 120.307 177.771 120.56 177.702 120.793C177.468 121.747 177.02 122.542 176.496 123.129C175.442 124.335 174.23 124.764 173.453 124.934C173.056 125.01 172.753 125.048 172.544 125.048C172.342 125.054 172.235 125.054 172.235 125.054L172.197 125.086Z" fill="url(#paint0_linear_4_1836)" fill-opacity="0.79"/>
</g>
<path d="M100.144 77.1097C100.144 78.347 99.2165 79.1171 97.733 79.1171H96.6157V80.6511H95.3279V75.0959H97.733C99.2165 75.0959 100.144 75.8661 100.144 77.1097ZM98.844 77.1097C98.844 76.4974 98.4463 76.1439 97.6636 76.1439H96.6157V78.0755H97.6636C98.4527 78.0755 98.844 77.7157 98.844 77.116V77.1097Z" fill="#263238"/>
<path d="M104.709 78.2143V80.651H103.547V80.1207C103.32 80.5121 102.872 80.7141 102.247 80.7141C101.249 80.7141 100.65 80.1586 100.65 79.42C100.65 78.6814 101.18 78.1449 102.487 78.1449H103.471C103.471 77.6146 103.156 77.3053 102.487 77.3053C102.032 77.3053 101.565 77.4568 101.256 77.703L100.814 76.8381C101.281 76.5036 101.975 76.3205 102.657 76.3205C103.957 76.3205 104.715 76.9265 104.715 78.2206L104.709 78.2143ZM103.471 79.3001V78.8645H102.619C102.038 78.8645 101.855 79.0791 101.855 79.3632C101.855 79.6725 102.121 79.8808 102.556 79.8808C102.966 79.8808 103.326 79.6915 103.471 79.3001Z" fill="#263238"/>
<path d="M105.415 80.2533L105.826 79.3633C106.204 79.6095 106.785 79.7736 107.309 79.7736C107.884 79.7736 108.098 79.6221 108.098 79.3822C108.098 78.6815 105.516 79.4011 105.516 77.6904C105.516 76.8824 106.249 76.3079 107.492 76.3079C108.079 76.3079 108.73 76.4405 109.134 76.6804L108.723 77.5641C108.3 77.3243 107.884 77.2485 107.492 77.2485C106.937 77.2485 106.697 77.4253 106.697 77.6462C106.697 78.3785 109.279 77.6715 109.279 79.3506C109.279 80.146 108.54 80.7079 107.265 80.7079C106.545 80.7079 105.813 80.5122 105.415 80.247V80.2533Z" fill="#263238"/>
<path d="M109.632 80.2533L110.043 79.3633C110.421 79.6095 111.002 79.7736 111.526 79.7736C112.101 79.7736 112.315 79.6221 112.315 79.3822C112.315 78.6815 109.733 79.4011 109.733 77.6904C109.733 76.8824 110.466 76.3079 111.709 76.3079C112.296 76.3079 112.946 76.4405 113.35 76.6804L112.94 77.5641C112.517 77.3243 112.101 77.2485 111.709 77.2485C111.154 77.2485 110.914 77.4253 110.914 77.6462C110.914 78.3785 113.496 77.6715 113.496 79.3506C113.496 80.146 112.757 80.7079 111.482 80.7079C110.762 80.7079 110.03 80.5122 109.632 80.247V80.2533Z" fill="#263238"/>
<path d="M121.039 76.3774L119.493 80.6511H118.3L117.34 77.9997L116.349 80.6511H115.156L113.616 76.3774H114.783L115.793 79.2686L116.841 76.3774H117.889L118.906 79.2686L119.947 76.3774H121.046H121.039Z" fill="#263238"/>
<path d="M121.185 78.511C121.185 77.2232 122.176 76.3142 123.533 76.3142C124.89 76.3142 125.875 77.2295 125.875 78.511C125.875 79.7925 124.89 80.7078 123.533 80.7078C122.176 80.7078 121.185 79.7925 121.185 78.511ZM124.625 78.511C124.625 77.7724 124.158 77.3305 123.539 77.3305C122.921 77.3305 122.441 77.7724 122.441 78.511C122.441 79.2496 122.914 79.6915 123.539 79.6915C124.164 79.6915 124.625 79.2496 124.625 78.511Z" fill="#263238"/>
<path d="M129.354 76.3142V77.4568C129.253 77.4505 129.171 77.4379 129.076 77.4379C128.394 77.4379 127.94 77.8103 127.94 78.631V80.6447H126.702V76.3711H127.883V76.9329C128.186 76.5226 128.691 76.3079 129.354 76.3079V76.3142Z" fill="#263238"/>
<path d="M134.403 74.755V80.6447H133.223V80.1523C132.914 80.5248 132.459 80.7079 131.891 80.7079C130.685 80.7079 129.757 79.8493 129.757 78.511C129.757 77.1728 130.685 76.3142 131.891 76.3142C132.415 76.3142 132.857 76.4784 133.172 76.8319V74.7613H134.41L134.403 74.755ZM133.191 78.511C133.191 77.7725 132.718 77.3306 132.106 77.3306C131.493 77.3306 131.007 77.7725 131.007 78.511C131.007 79.2496 131.481 79.6915 132.106 79.6915C132.73 79.6915 133.191 79.2496 133.191 78.511Z" fill="#263238"/>
<path d="M83.1695 90.2401H75.1272C73.2166 90.2401 71.6678 91.7889 71.6678 93.6994V107.48C71.6678 109.39 73.2166 110.939 75.1272 110.939H83.1695C85.0801 110.939 86.6289 109.39 86.6289 107.48V93.6994C86.6289 91.7889 85.0801 90.2401 83.1695 90.2401Z" fill="#EBEBEB"/>
<path d="M118.476 90.2401H110.838C108.927 90.2401 107.379 91.7889 107.379 93.6994V107.48C107.379 109.39 108.927 110.939 110.838 110.939H118.476C120.387 110.939 121.936 109.39 121.936 107.48V93.6994C121.936 91.7889 120.387 90.2401 118.476 90.2401Z" fill="#EBEBEB"/>
<path d="M100.978 90.2401H93.3393C91.4288 90.2401 89.88 91.7889 89.88 93.6994V107.48C89.88 109.39 91.4288 110.939 93.3393 110.939H100.978C102.888 110.939 104.437 109.39 104.437 107.48V93.6994C104.437 91.7889 102.888 90.2401 100.978 90.2401Z" fill="#EBEBEB"/>
<path d="M136.303 90.2401H128.254C126.344 90.2401 124.795 91.7889 124.795 93.6994V107.48C124.795 109.39 126.344 110.939 128.254 110.939H136.303C138.214 110.939 139.762 109.39 139.762 107.48V93.6994C139.762 91.7889 138.214 90.2401 136.303 90.2401Z" fill="#EBEBEB"/>
<path d="M153.467 90.2401H145.419C143.508 90.2401 141.959 91.7889 141.959 93.6994V107.48C141.959 109.39 143.508 110.939 145.419 110.939H153.467C155.378 110.939 156.927 109.39 156.927 107.48V93.6994C156.927 91.7889 155.378 90.2401 153.467 90.2401Z" fill="#EBEBEB"/>
<path d="M81.0803 100.044L82.6837 100.909L81.964 102.114L80.348 101.161L80.3796 102.935H78.9971L79.0097 101.142L77.3937 102.114L76.6866 100.909L78.2901 100.044L76.6866 99.1599L77.3937 97.9542L79.0097 98.9263L78.9971 97.1335H80.3796L80.348 98.9263L81.964 97.9542L82.6837 99.1599L81.0803 100.044Z" fill="#3865FF"/>
<path d="M98.5157 99.9427L100.119 100.808L99.3995 102.013L97.7834 101.06L97.815 102.834H96.4325L96.4451 101.041L94.8291 102.013L94.1221 100.808L95.7255 99.9427L94.1221 99.0589L94.8291 97.8532L96.4451 98.8253L96.4325 97.0325H97.815L97.7834 98.8253L99.3995 97.8532L100.119 99.0589L98.5157 99.9427Z" fill="#3865FF"/>
<path d="M116.374 99.9427L117.972 100.808L117.252 102.013L115.636 101.06L115.667 102.834H114.285L114.298 101.041L112.682 102.013L111.974 100.808L113.572 99.9427L111.974 99.0589L112.682 97.8532L114.298 98.8253L114.285 97.0325H115.667L115.636 98.8253L117.252 97.8532L117.972 99.0589L116.374 99.9427Z" fill="#3865FF"/>
<path d="M133.677 99.9427L135.274 100.808L134.554 102.013L132.938 101.06L132.97 102.834H131.587L131.6 101.041L129.984 102.013L129.277 100.808L130.874 99.9427L129.277 99.0589L129.984 97.8532L131.6 98.8253L131.587 97.0325H132.97L132.938 98.8253L134.554 97.8532L135.274 99.0589L133.677 99.9427Z" fill="#3865FF"/>
<path d="M83.018 111.072H75.2787C73.2902 111.072 71.6678 109.456 71.6678 107.461V93.7246C71.6678 91.7361 73.2839 90.1138 75.2787 90.1138H83.018C85.0065 90.1138 86.6289 91.7298 86.6289 93.7246V107.461C86.6289 109.449 85.0128 111.072 83.018 111.072ZM75.2787 90.3726C73.4291 90.3726 71.9267 91.875 71.9267 93.7246V107.461C71.9267 109.311 73.4291 110.813 75.2787 110.813H83.018C84.8676 110.813 86.3701 109.311 86.3701 107.461V93.7246C86.3701 91.875 84.8676 90.3726 83.018 90.3726H75.2787Z" fill="#263238"/>
<path d="M100.997 111.072H93.2572C91.2687 111.072 89.6464 109.456 89.6464 107.461V93.7246C89.6464 91.7361 91.2624 90.1138 93.2572 90.1138H100.997C102.985 90.1138 104.607 91.7298 104.607 93.7246V107.461C104.607 109.449 102.991 111.072 100.997 111.072ZM93.2572 90.3726C91.4076 90.3726 89.9052 91.875 89.9052 93.7246V107.461C89.9052 109.311 91.4076 110.813 93.2572 110.813H100.997C102.846 110.813 104.349 109.311 104.349 107.461V93.7246C104.349 91.875 102.846 90.3726 100.997 90.3726H93.2572Z" fill="#263238"/>
<path d="M118.476 111.072H110.737C108.748 111.072 107.126 109.456 107.126 107.461V93.7246C107.126 91.7361 108.742 90.1138 110.737 90.1138H118.476C120.465 90.1138 122.087 91.7298 122.087 93.7246V107.461C122.087 109.449 120.471 111.072 118.476 111.072ZM110.737 90.3726C108.887 90.3726 107.385 91.875 107.385 93.7246V107.461C107.385 109.311 108.887 110.813 110.737 110.813H118.476C120.326 110.813 121.828 109.311 121.828 107.461V93.7246C121.828 91.875 120.326 90.3726 118.476 90.3726H110.737Z" fill="#263238"/>
<path d="M136.151 111.072H128.412C126.424 111.072 124.801 109.456 124.801 107.461V93.7246C124.801 91.7361 126.417 90.1138 128.412 90.1138H136.151C138.14 90.1138 139.762 91.7298 139.762 93.7246V107.461C139.762 109.449 138.146 111.072 136.151 111.072ZM128.412 90.3726C126.563 90.3726 125.06 91.875 125.06 93.7246V107.461C125.06 109.311 126.563 110.813 128.412 110.813H136.151C138.001 110.813 139.503 109.311 139.503 107.461V93.7246C139.503 91.875 138.001 90.3726 136.151 90.3726H128.412Z" fill="#263238"/>
<path d="M153.316 111.072H145.576C143.588 111.072 141.966 109.456 141.966 107.461V93.7246C141.966 91.7361 143.582 90.1138 145.576 90.1138H153.316C155.304 90.1138 156.927 91.7298 156.927 93.7246V107.461C156.927 109.449 155.311 111.072 153.316 111.072ZM145.576 90.3726C143.727 90.3726 142.224 91.875 142.224 93.7246V107.461C142.224 109.311 143.727 110.813 145.576 110.813H153.316C155.165 110.813 156.668 109.311 156.668 107.461V93.7246C156.668 91.875 155.165 90.3726 153.316 90.3726H145.576Z" fill="#263238"/>
<path d="M153.594 105.574C153.594 105.662 151.738 105.738 149.446 105.738C147.155 105.738 145.299 105.662 145.299 105.574C145.299 105.485 147.155 105.409 149.446 105.409C151.738 105.409 153.594 105.485 153.594 105.574Z" fill="#3865FF"/>
<path d="M114.979 68.777C124.215 68.777 131.701 61.2902 131.701 52.0547C131.701 42.8193 124.215 35.3325 114.979 35.3325C105.744 35.3325 98.257 42.8193 98.257 52.0547C98.257 61.2902 105.744 68.777 114.979 68.777Z" fill="#3865FF"/>
<path d="M112.037 49.0122H111.759V47.4529C111.759 45.6538 113.224 44.1893 115.023 44.1893C116.822 44.1893 118.287 45.6538 118.287 47.4529V48.7218H118.009V47.4529C118.009 45.8053 116.671 44.467 115.023 44.467C113.375 44.467 112.037 45.8053 112.037 47.4529V49.0122Z" fill="white"/>
<path d="M119.126 59.9141H110.838C110.08 59.9141 109.462 59.2955 109.462 58.538V50.2431C109.462 49.4856 110.08 48.8669 110.838 48.8669H119.126C119.884 48.8669 120.503 49.4856 120.503 50.2431V58.538C120.503 59.2955 119.884 59.9141 119.126 59.9141ZM110.838 49.151C110.232 49.151 109.74 49.6434 109.74 50.2494V58.5443C109.74 59.1503 110.232 59.6427 110.838 59.6427H119.126C119.733 59.6427 120.225 59.1503 120.225 58.5443V50.2494C120.225 49.6434 119.733 49.151 119.126 49.151H110.838Z" fill="white"/>
<path d="M115.023 54.6681C114.303 54.6681 113.723 54.0874 113.723 53.3677C113.723 52.6481 114.303 52.0673 115.023 52.0673C115.743 52.0673 116.323 52.6481 116.323 53.3677C116.323 54.0874 115.743 54.6681 115.023 54.6681ZM115.023 52.3451C114.461 52.3451 114 52.8059 114 53.3677C114 53.9296 114.461 54.3904 115.023 54.3904C115.585 54.3904 116.046 53.9296 116.046 53.3677C116.046 52.8059 115.585 52.3451 115.023 52.3451Z" fill="white"/>
<path d="M115.118 54.4662H114.84V56.8145H115.118V54.4662Z" fill="white"/>
<path d="M171.601 28.9056C172.214 26.1204 170.453 23.3656 167.668 22.7527C164.883 22.1399 162.128 23.9009 161.515 26.6861C160.902 29.4714 162.663 32.2261 165.448 32.839C168.234 33.4519 170.988 31.6908 171.601 28.9056Z" fill="#E0E0E0"/>
<path d="M164.893 29.6258C164.855 29.6258 164.811 29.6132 164.78 29.5817C164.717 29.5185 164.717 29.4175 164.78 29.3607L168.125 26.015C168.188 25.9519 168.289 25.9519 168.346 26.015C168.409 26.0781 168.409 26.1791 168.346 26.2359L165.001 29.5817C165.001 29.5817 164.931 29.6258 164.887 29.6258H164.893Z" fill="white"/>
<path d="M168.233 29.6261C168.195 29.6261 168.151 29.6134 168.119 29.5819L164.773 26.2362C164.71 26.173 164.71 26.072 164.773 26.0152C164.837 25.9584 164.938 25.9521 164.994 26.0152L168.34 29.3609C168.403 29.4241 168.403 29.5251 168.34 29.5819C168.309 29.6134 168.271 29.6261 168.226 29.6261H168.233Z" fill="white"/>
<path d="M33.7476 222.617C33.7476 222.617 17.0695 203.42 10.7758 184.223C4.48206 165.026 7.47426 167.229 7.47426 167.229C7.47426 167.229 15.9711 185.877 22.4227 194.885C28.8742 203.893 40.3633 217.112 40.3633 217.112L33.7539 222.617H33.7476Z" fill="#455A64"/>
<path d="M37.0682 170.222C36.5316 169.287 35.0986 169.773 35.2564 170.84C36.2728 177.582 38.4696 193.408 38.3875 203.672C38.2739 217.005 38.3875 222.156 38.3875 222.156H45.3315C45.3315 222.156 44.1005 194.595 42.5286 186.193C41.4302 180.303 39.0946 173.763 37.0619 170.222H37.0682Z" fill="#455A64"/>
<path d="M40.8557 219.915C40.8557 219.915 45.2241 210.73 46.5687 199.19C47.1431 194.285 46.1205 187.651 44.6054 178.8C43.8732 174.514 43.7027 171.251 43.728 168.991C43.7469 167.28 46.0005 166.724 46.8401 168.214C47.6797 169.71 50.1038 174.817 50.7161 178.018C52.3953 186.754 54.3017 191.123 52.8435 199.418C51.3852 207.706 46.0069 220.483 46.0069 220.483L40.8557 219.921V219.915Z" fill="#455A64"/>
<path d="M47.1053 220.477C47.1053 220.477 65.4184 181.124 66.6872 175.284C67.9561 169.445 72.2739 155.993 72.7789 156.757C73.284 157.521 74.0478 164.629 70.7463 172.747C67.4447 180.871 53.3549 221.676 53.3549 221.676H47.099" fill="#455A64"/>
<path d="M38.8483 218.715C38.8483 218.715 38.6652 218.602 38.337 218.362C38.015 218.116 37.5163 217.769 36.9166 217.276C35.6983 216.317 33.9875 214.865 31.9927 212.933C27.9968 209.095 23.0224 203.174 18.7046 195.883C14.3804 188.591 11.4766 181.458 9.63326 176.238C8.71161 173.624 8.04246 171.484 7.60689 170.001C7.38594 169.262 7.22813 168.675 7.12081 168.284C7.0135 167.892 6.963 167.684 6.98193 167.678C6.99456 167.678 7.07031 167.873 7.19656 168.258C7.33544 168.681 7.51851 169.243 7.75208 169.95C8.23184 171.421 8.94517 173.542 9.89839 176.143C11.7985 181.332 14.7402 188.421 19.0454 195.681C23.3381 202.946 28.2556 208.861 32.1884 212.737C34.1454 214.688 35.8245 216.171 37.0113 217.163C37.5984 217.668 38.0718 218.034 38.3812 218.299C38.6968 218.558 38.8546 218.703 38.8483 218.715Z" fill="#263238"/>
<path d="M40.8557 199.834C40.8557 199.834 40.7736 199.424 40.6916 198.679C40.6032 197.865 40.4896 196.804 40.357 195.523C40.0666 192.859 39.6121 189.191 38.9682 185.157C38.318 181.124 37.5984 177.494 37.0365 174.874C36.7651 173.618 36.5378 172.576 36.3674 171.774C36.2096 171.042 36.1338 170.632 36.1591 170.626C36.1843 170.619 36.3106 171.017 36.5126 171.737C36.7146 172.456 36.986 173.51 37.3017 174.811C37.9329 177.418 38.6968 181.048 39.347 185.094C39.9972 189.134 40.4075 192.821 40.6284 195.497C40.7421 196.836 40.8115 197.915 40.8431 198.666C40.8746 199.418 40.8809 199.828 40.8557 199.834Z" fill="#263238"/>
<path d="M45.1418 167.905C45.1418 167.905 45.2302 168.075 45.3565 168.404C45.4953 168.776 45.6784 169.262 45.9057 169.868C46.1455 170.499 46.4296 171.282 46.6884 172.21C46.9599 173.132 47.3134 174.173 47.5785 175.36C47.7237 175.954 47.8752 176.566 48.033 177.21C48.1845 177.854 48.2982 178.535 48.437 179.236C48.7337 180.631 48.9231 182.146 49.1441 183.737C49.5039 186.925 49.6996 190.46 49.5796 194.166C49.4281 197.871 48.9799 201.381 48.3992 204.537C48.0646 206.109 47.7679 207.605 47.3702 208.981C47.1808 209.669 47.023 210.339 46.821 210.97C46.619 211.601 46.4233 212.207 46.2339 212.782C45.8867 213.943 45.4575 214.96 45.1229 215.862C44.7946 216.765 44.4601 217.529 44.1697 218.141C43.8982 218.728 43.6836 219.202 43.5195 219.561C43.368 219.883 43.2796 220.048 43.267 220.048C43.2543 220.048 43.3175 219.864 43.4437 219.53C43.5889 219.164 43.7846 218.684 44.0245 218.084C44.2896 217.459 44.5989 216.695 44.9146 215.786C45.2302 214.877 45.6405 213.861 45.9688 212.7C46.1455 212.119 46.3349 211.519 46.5243 210.888C46.7137 210.257 46.8652 209.587 47.0483 208.899C47.4333 207.53 47.7111 206.04 48.033 204.474C48.5949 201.33 49.0304 197.84 49.1819 194.153C49.2956 190.466 49.1125 186.957 48.7779 183.781C48.5696 182.197 48.3929 180.688 48.1088 179.293C47.9762 178.592 47.8752 177.917 47.73 177.273C47.5848 176.629 47.4396 176.017 47.3008 175.423C47.0546 174.236 46.72 173.195 46.4675 172.267C46.2213 171.339 45.9688 170.55 45.7478 169.912C45.5522 169.3 45.388 168.801 45.2681 168.429C45.1608 168.088 45.1103 167.905 45.1229 167.899L45.1418 167.905Z" fill="#263238"/>
<path d="M72.5705 157.546C72.5705 157.546 72.5705 157.609 72.5579 157.722C72.539 157.861 72.5074 158.032 72.4758 158.234C72.3938 158.682 72.2928 159.345 72.116 160.191C71.7625 161.883 71.1754 164.319 70.2601 167.274C69.3511 170.228 68.0948 173.694 66.6114 177.506C65.1342 181.319 63.4171 185.467 61.7885 189.886C60.1346 194.298 58.8657 198.603 57.6726 202.511C56.4858 206.418 55.3622 209.928 54.2764 212.826C53.2032 215.73 52.168 218.015 51.3852 219.555C51.0128 220.338 50.6719 220.919 50.4572 221.316C50.3562 221.499 50.2679 221.645 50.1984 221.765C50.1416 221.866 50.1037 221.916 50.0974 221.91C50.0974 221.91 50.1163 221.853 50.1605 221.746C50.2174 221.619 50.2931 221.468 50.3815 221.278C50.5772 220.868 50.8928 220.275 51.2463 219.486C51.9849 217.926 52.976 215.635 54.0176 212.725C55.0655 209.821 56.1639 206.311 57.3254 202.397C58.4996 198.49 59.7684 194.166 61.4223 189.74C63.051 185.309 64.7807 181.161 66.2768 177.361C67.7792 173.567 69.0544 170.114 69.9949 167.179C70.9419 164.243 71.5731 161.826 71.9708 160.147C72.1728 159.307 72.2991 158.65 72.4001 158.209C72.4506 158.007 72.4885 157.842 72.52 157.704C72.5516 157.59 72.5642 157.533 72.5768 157.533L72.5705 157.546Z" fill="#263238"/>
<path d="M16.1036 148.853C14.9484 147.704 13.0293 148.904 13.5091 150.463C13.9952 152.041 14.7274 154.08 15.8069 156.378C18.3257 161.725 25.7178 180.922 29.1834 191.464C32.6428 202.006 37.5225 221.676 37.5225 221.676L44.9146 220.477C44.9146 220.477 38.1538 188.162 31.5444 176.515C26.2354 167.16 20.9265 153.638 16.1036 148.847V148.853Z" fill="#455A64"/>
<path d="M31.2037 198.06C31.2037 198.06 31.3615 198.37 31.5824 198.944C31.8034 199.525 32.1001 200.371 32.4346 201.425C33.1164 203.534 33.9497 206.482 34.7893 209.752C35.6288 213.028 36.3232 216.001 36.8093 218.16C37.0303 219.183 37.2196 220.041 37.3648 220.723C37.4911 221.329 37.5416 221.67 37.5163 221.676C37.4911 221.676 37.3838 221.354 37.2133 220.761C37.0303 220.085 36.8093 219.24 36.5379 218.229C35.9697 216.007 35.2311 213.085 34.4042 209.853C33.5646 206.583 32.7755 203.635 32.1632 201.507C31.8728 200.503 31.6266 199.664 31.4309 198.995C31.2542 198.401 31.1658 198.067 31.1973 198.06H31.2037Z" fill="#263238"/>
<path d="M41.2346 221.076C41.2346 221.076 41.2157 221.013 41.1905 220.881C41.1715 220.729 41.14 220.534 41.1084 220.3C41.0326 219.789 40.9632 219.031 40.8054 218.059C40.5339 216.115 40.0479 213.318 39.2588 209.903C38.4697 206.488 37.3208 202.473 35.7994 198.092C34.2844 193.711 32.3843 188.983 30.2253 184.084C25.8759 174.3 21.5328 165.626 18.6795 159.206C17.2339 156.005 16.1165 153.392 15.3843 151.574C15.0118 150.665 14.7404 149.952 14.551 149.472C14.4689 149.245 14.3995 149.068 14.3427 148.923C14.2985 148.796 14.2795 148.733 14.2859 148.727C14.2922 148.727 14.3237 148.784 14.3805 148.904C14.4437 149.043 14.5257 149.219 14.6204 149.44C14.8351 149.939 15.1381 150.633 15.5168 151.511C16.2933 153.31 17.4485 155.904 18.9257 159.092C21.8421 165.474 26.2231 174.129 30.5789 183.926C32.7378 188.831 34.6316 193.578 36.134 197.978C37.6364 202.372 38.7664 206.412 39.5239 209.846C40.2877 213.28 40.7296 216.089 40.9569 218.04C41.0895 219.012 41.1336 219.776 41.1841 220.287C41.2031 220.527 41.2157 220.717 41.2283 220.874C41.2346 221.007 41.2346 221.076 41.2283 221.076H41.2346Z" fill="#263238"/>
<path d="M44.9148 220.477C44.9148 220.477 44.8011 220.035 44.6686 219.233C44.5234 218.362 44.3277 217.219 44.0941 215.837C43.5828 212.971 42.8063 209.026 41.689 204.733C40.5843 200.434 39.3344 196.615 38.3748 193.869C37.9014 192.543 37.5163 191.451 37.2196 190.624C36.9419 189.86 36.803 189.431 36.8282 189.418C36.8535 189.406 37.0429 189.816 37.3648 190.567C37.6805 191.318 38.1287 192.411 38.64 193.774C39.6689 196.501 40.963 200.327 42.0741 204.638C43.1977 208.943 43.93 212.914 44.3719 215.793C44.5802 217.238 44.7443 218.406 44.8264 219.214C44.9148 220.022 44.9526 220.477 44.9274 220.477H44.9148Z" fill="#263238"/>
<path d="M60.0902 219.416H31.235V254.571H60.0902V219.416Z" fill="#C7C2FC"/>
<g opacity="0.3">
<path d="M60.0902 219.416H31.235V254.571H60.0902V219.416Z" fill="black"/>
</g>
<path d="M50.8801 219.416H25.2822V254.571H50.8801V219.416Z" fill="#C7C2FC"/>
<path d="M228.714 141.203L213.545 138.999L183.2 143.494L174.684 146.505L176.193 165.128L205.37 170.5L225.053 164.667L232.496 153.714L228.714 141.203Z" fill="#FFBE9D"/>
<path d="M238.278 142.982L225.583 139.99C225.583 139.99 216.607 167.734 194.456 166.541C176.401 165.569 176.193 145.413 176.193 145.413L163.183 149.579C163.183 149.579 158.208 182.954 163.713 206.595C165.001 212.119 166.724 219.568 166.724 219.568L164.963 254.117L261.193 254.269L238.278 142.976V142.982Z" fill="#3865FF"/>
<g opacity="0.3">
<path d="M200.554 247.413C205.238 247.299 209.555 247.691 214.239 247.577C219.858 247.438 225.52 247.299 231.069 248.215C235.229 248.903 239.269 250.165 243.436 250.822C249.104 251.718 255.164 251.396 260.215 248.663L259.4 243.947L240.229 239.333L200.56 247.407L200.554 247.413Z" fill="black"/>
</g>
<path d="M152.319 157.363C156.718 151.675 164.035 149.314 164.035 149.314L168.959 192.177L159.635 254.578L129.094 254.433C129.094 254.433 145.936 165.601 152.312 157.363H152.319Z" fill="#3865FF"/>
<path d="M236.795 142.667C236.795 142.667 257.349 144.314 264.722 177.986C268.055 193.219 272.272 211.071 273.49 223.065C274.374 231.764 269.64 245.393 260.966 246.504L250.058 247.968C247.918 248.259 245.74 248.215 243.631 247.729C236.744 246.144 236.044 241.422 234.825 236.397L231.644 226.348C229.901 216.79 238.809 215.01 243.726 215.111L240.058 171.49L236.795 142.661V142.667Z" fill="#3865FF"/>
<path d="M161.491 173.138C161.491 173.138 161.447 173.296 161.396 173.605C161.346 173.946 161.276 174.401 161.188 174.962C161.144 175.259 161.1 175.587 161.049 175.947C161.011 176.313 160.973 176.705 160.929 177.121C160.847 177.967 160.74 178.927 160.696 179.987C160.538 182.115 160.544 184.659 160.645 187.48C160.765 190.302 161.081 193.389 161.554 196.609C162.028 199.828 162.621 202.877 163.221 205.629C163.814 208.388 164.42 210.85 164.931 212.914C165.455 214.978 165.891 216.645 166.2 217.794C166.352 218.343 166.478 218.785 166.566 219.113C166.655 219.416 166.705 219.574 166.718 219.568C166.731 219.568 166.699 219.404 166.63 219.094C166.554 218.76 166.453 218.312 166.32 217.756C166.036 216.563 165.638 214.896 165.152 212.851C164.673 210.781 164.086 208.312 163.511 205.554C162.924 202.801 162.343 199.765 161.87 196.552C161.403 193.345 161.074 190.264 160.936 187.455C160.816 184.646 160.79 182.115 160.917 179.994C160.948 178.933 161.03 177.974 161.1 177.128C161.131 176.711 161.163 176.32 161.194 175.954C161.232 175.6 161.27 175.272 161.308 174.969C161.371 174.401 161.415 173.946 161.453 173.605C161.485 173.296 161.491 173.125 161.485 173.125L161.491 173.138Z" fill="#263238"/>
<path d="M259.849 226.928C259.849 226.928 259.823 226.619 259.684 226.083C259.552 225.546 259.299 224.776 258.889 223.867C258.087 222.055 256.497 219.688 254.016 217.882C251.535 216.077 248.795 215.294 246.826 215.086C245.834 214.972 245.026 214.972 244.471 215.01C243.915 215.048 243.612 215.098 243.612 215.117C243.612 215.187 244.843 215.042 246.788 215.319C248.719 215.585 251.39 216.386 253.814 218.154C256.238 219.921 257.822 222.213 258.668 223.968C259.533 225.735 259.773 226.947 259.836 226.928H259.849Z" fill="#263238"/>
<path d="M255.102 210.149C255.102 210.149 254.925 210.111 254.603 210.105C254.281 210.092 253.82 210.105 253.246 210.168C252.103 210.276 250.537 210.591 248.909 211.26C247.286 211.929 245.942 212.807 245.058 213.533C244.616 213.893 244.269 214.208 244.054 214.442C243.833 214.675 243.72 214.808 243.732 214.827C243.77 214.865 244.288 214.385 245.197 213.716C246.106 213.047 247.438 212.22 249.029 211.557C250.626 210.907 252.153 210.553 253.271 210.389C254.388 210.225 255.095 210.2 255.095 210.143L255.102 210.149Z" fill="#263238"/>
<path d="M233.821 166.541C233.821 166.541 233.859 166.22 233.872 165.639C233.872 165.058 233.91 164.225 233.979 163.196C234.118 161.138 234.497 158.297 235.349 155.261C236.208 152.231 237.357 149.605 238.31 147.774C238.783 146.859 239.194 146.126 239.49 145.628C239.781 145.129 239.932 144.845 239.913 144.832C239.894 144.82 239.705 145.078 239.377 145.558C239.042 146.038 238.606 146.751 238.101 147.66C237.091 149.472 235.892 152.104 235.027 155.166C234.175 158.228 233.821 161.1 233.746 163.17C233.701 164.206 233.708 165.052 233.746 165.632C233.777 166.213 233.802 166.535 233.821 166.529V166.541Z" fill="#263238"/>
<path d="M194.455 197.12C194.455 197.12 194.474 197.246 194.55 197.473C194.626 197.701 194.721 198.048 194.891 198.465C195.207 199.323 195.756 200.529 196.602 201.93C197.448 203.332 198.634 204.891 200.194 206.4C201.747 207.902 203.697 209.322 205.951 210.421C208.211 211.494 210.54 212.125 212.686 212.403C214.839 212.681 216.802 212.63 218.418 212.416C220.041 212.201 221.328 211.873 222.193 211.589C222.629 211.462 222.957 211.317 223.184 211.235C223.405 211.147 223.525 211.096 223.519 211.084C223.506 211.058 223.033 211.216 222.162 211.469C221.291 211.715 220.003 212.012 218.399 212.188C215.205 212.567 210.572 212.277 206.096 210.137C201.627 207.984 198.502 204.55 196.804 201.823C195.939 200.453 195.364 199.273 195.011 198.433C194.657 197.6 194.487 197.126 194.462 197.133L194.455 197.12Z" fill="#263238"/>
<path d="M237.773 244.497C237.805 244.465 238.133 244.926 238.897 245.557C239.667 246.176 240.942 246.895 242.659 247.35C244.37 247.817 246.503 248.013 248.852 247.893C251.2 247.722 253.788 247.451 256.484 247.047C259.167 246.63 261.742 246.144 263.933 245.33C265.006 244.882 265.902 244.2 266.666 243.505C267.43 242.798 268.061 242.054 268.579 241.334C269.62 239.895 270.271 238.594 270.681 237.685C270.877 237.224 271.028 236.871 271.123 236.625C271.217 236.378 271.274 236.252 271.287 236.259C271.3 236.259 271.262 236.397 271.186 236.65C271.116 236.902 270.978 237.269 270.801 237.736C270.428 238.664 269.803 239.989 268.774 241.466C268.263 242.205 267.632 242.969 266.855 243.701C266.079 244.427 265.164 245.134 264.053 245.608C261.805 246.466 259.236 246.946 256.534 247.369C253.826 247.773 251.244 248.038 248.871 248.189C246.497 248.297 244.338 248.076 242.602 247.565C240.866 247.072 239.578 246.308 238.821 245.645C238.455 245.298 238.171 245.027 238.019 244.812C237.855 244.604 237.773 244.497 237.779 244.49L237.773 244.497Z" fill="#263238"/>
<path d="M234.383 177.279C234.472 177.26 236.637 185.675 239.225 196.072C241.813 206.475 243.833 214.922 243.745 214.947C243.657 214.966 241.491 206.557 238.903 196.154C236.321 185.757 234.295 177.305 234.383 177.279Z" fill="#263238"/>
<path d="M231.764 224.763C231.764 224.763 231.7 224.517 231.656 224.069C231.618 223.621 231.555 222.97 231.612 222.156C231.656 221.348 231.934 220.363 232.534 219.461C232.83 219.012 233.165 218.551 233.588 218.135C234.011 217.718 234.51 217.358 235.046 217.049C237.237 215.856 239.44 215.364 241.031 215.117C241.826 215.004 242.482 214.96 242.931 214.947C243.379 214.934 243.631 214.947 243.631 214.972C243.631 215.029 242.64 215.067 241.068 215.345C239.516 215.641 237.331 216.178 235.21 217.333C234.693 217.636 234.213 217.977 233.809 218.368C233.405 218.754 233.077 219.202 232.786 219.631C232.199 220.49 231.915 221.399 231.839 222.181C231.757 222.964 231.783 223.614 231.783 224.062C231.783 224.511 231.783 224.757 231.757 224.763H231.764Z" fill="#263238"/>
<g opacity="0.3">
<path d="M162.438 201.419C157.192 192.537 157.085 180.997 161.655 171.756C160.292 181.597 160.399 191.691 162.589 201.381" fill="black"/>
</g>
<path d="M190.194 223.589C190.194 223.589 190.22 223.602 190.232 223.608C190.22 223.608 190.207 223.595 190.194 223.589Z" fill="#FFBE9D"/>
<path d="M190.422 223.696C190.422 223.696 190.479 223.722 190.504 223.734C190.479 223.722 190.454 223.709 190.422 223.696Z" fill="#FFBE9D"/>
<path d="M190.232 223.602C190.308 223.64 190.372 223.665 190.423 223.69C190.359 223.659 190.289 223.627 190.232 223.602Z" fill="#FFBE9D"/>
<path d="M190.113 223.545C190.113 223.545 190.17 223.57 190.195 223.583C190.144 223.558 190.113 223.545 190.113 223.545Z" fill="#FFBE9D"/>
<path d="M170.802 241.284C172.45 238.165 185.347 229.933 185.347 229.933L181.856 229.125L178.005 230.754C178.005 230.754 177.765 232.345 176.345 234.365C174.924 236.385 172.519 234.295 172.519 234.295L174.148 226.487L181.774 221.897C181.774 221.897 188.951 222.996 190.106 223.545L193.168 226.341C194.513 227.396 198.382 231.543 199.443 231.669C200.503 231.796 233.79 224.309 233.79 224.309C238.354 227.92 240.759 235.103 241.485 240.28C241.485 240.28 242.3 242.824 241.416 244.206L200.554 247.413L191.893 249.806C191.893 249.806 187.102 251.763 184.779 252.249C181.9 252.855 179.956 251.927 179.88 250.33C179.804 248.732 182.039 248.562 182.039 248.562C182.039 248.562 185.675 247.249 187.607 246.113C189.538 244.976 190.75 242.666 190.75 242.666L187.663 243.032C187.663 243.032 181.098 247.59 178.636 248.922C176.168 250.26 175.682 247.805 175.486 247.06C175.284 246.315 182.86 238.91 182.86 238.91C182.86 238.91 175.663 243.348 174.369 244.465C173.075 245.582 171.156 245.917 170.745 245.166C170.335 244.415 169.167 244.396 170.815 241.271L170.802 241.284Z" fill="#FFBE9D"/>
<path d="M190.504 223.734C190.504 223.734 190.561 223.76 190.574 223.766C190.555 223.753 190.529 223.747 190.504 223.734Z" fill="#FFBE9D"/>
<path d="M190.573 223.766C190.573 223.766 190.605 223.778 190.611 223.785C190.605 223.785 190.592 223.772 190.573 223.766Z" fill="#FFBE9D"/>
<path d="M206.317 242.003C206.317 242.003 206.349 241.826 206.355 241.498C206.367 241.334 206.348 241.132 206.317 240.905C206.298 240.671 206.254 240.412 206.178 240.128C205.919 238.979 205.181 237.502 204.089 236.095C202.996 234.687 201.816 233.582 200.939 232.825C200.061 232.067 199.48 231.644 199.455 231.676C199.423 231.714 199.96 232.187 200.793 232.982C201.627 233.778 202.769 234.895 203.849 236.284C204.928 237.666 205.673 239.08 205.976 240.185C206.298 241.284 206.26 242.01 206.323 242.01L206.317 242.003Z" fill="#EB996E"/>
<path d="M185.65 229.687C185.637 229.763 186.666 229.895 187.853 229.491C189.039 229.1 189.784 228.374 189.728 228.324C189.671 228.248 188.882 228.835 187.758 229.207C186.634 229.592 185.656 229.599 185.656 229.693L185.65 229.687Z" fill="#EB996E"/>
<path d="M183.503 238.235C183.535 238.31 185.006 237.78 186.786 237.048C188.566 236.315 189.986 235.659 189.955 235.583C189.923 235.507 188.452 236.038 186.672 236.77C184.892 237.502 183.472 238.159 183.503 238.235Z" fill="#EB996E"/>
<path d="M190.422 242.603C190.46 242.679 191.192 242.363 192.107 242.009C193.016 241.65 193.768 241.391 193.749 241.302C193.73 241.227 192.928 241.359 192 241.725C191.072 242.085 190.39 242.533 190.428 242.603H190.422Z" fill="#EB996E"/>
<path d="M184.57 238.803C184.538 238.885 185.283 239.163 185.845 239.914C186.42 240.652 186.489 241.448 186.577 241.435C186.615 241.435 186.653 241.233 186.603 240.905C186.552 240.577 186.394 240.135 186.085 239.731C185.776 239.327 185.391 239.055 185.088 238.923C184.785 238.784 184.576 238.771 184.57 238.803Z" fill="#EB996E"/>
<path d="M181.54 234.03C181.502 234.112 182.064 234.415 182.436 235.072C182.821 235.716 182.815 236.36 182.903 236.366C182.979 236.391 183.143 235.665 182.701 234.92C182.272 234.169 181.559 233.955 181.546 234.037L181.54 234.03Z" fill="#EB996E"/>
<path d="M182.569 225.514C182.6 225.533 182.72 225.388 182.809 225.11C182.897 224.833 182.941 224.416 182.834 223.974C182.727 223.532 182.499 223.179 182.291 222.977C182.083 222.768 181.912 222.699 181.893 222.724C181.837 222.787 182.361 223.255 182.544 224.044C182.746 224.833 182.487 225.483 182.569 225.514Z" fill="#EB996E"/>
<path d="M241.776 245.38C241.776 245.38 241.738 245.046 241.719 244.44C241.719 244.137 241.706 243.771 241.675 243.341C241.649 242.912 241.637 242.426 241.574 241.89C241.391 239.75 240.911 236.789 239.787 233.702C239.219 232.162 238.544 230.748 237.849 229.51C237.477 228.911 237.142 228.317 236.77 227.806C236.587 227.547 236.416 227.301 236.246 227.055C236.063 226.827 235.892 226.607 235.722 226.392C234.365 224.719 233.323 223.867 233.373 223.816C233.386 223.797 233.645 224.012 234.106 224.403C234.339 224.599 234.617 224.845 234.907 225.161C235.204 225.47 235.564 225.811 235.899 226.24C236.075 226.449 236.258 226.67 236.448 226.897C236.631 227.13 236.808 227.383 236.997 227.642C237.388 228.147 237.729 228.74 238.114 229.346C238.834 230.59 239.522 232.017 240.096 233.576C241.233 236.701 241.675 239.699 241.801 241.858C241.851 242.401 241.845 242.887 241.851 243.323C241.864 243.752 241.851 244.124 241.839 244.427C241.814 245.033 241.788 245.368 241.763 245.368L241.776 245.38Z" fill="#263238"/>
<g opacity="0.3">
<path d="M255.802 216.178C252.034 214.606 247.634 214.202 243.695 215.08C250.765 214.644 257.589 219.17 260.032 225.647C260.328 226.43 260.909 227.358 261.736 227.238C262.506 227.124 262.797 226.158 262.797 225.376C262.797 221.291 259.565 217.756 255.796 216.184L255.802 216.178Z" fill="black"/>
</g>
<path d="M161.245 170.253C161.245 170.253 161.043 170.209 160.702 170.07C160.354 169.938 159.868 169.717 159.275 169.42C158.088 168.833 156.504 167.918 154.875 166.712C153.253 165.506 151.908 164.263 150.999 163.297C150.545 162.817 150.191 162.413 149.957 162.129C149.724 161.839 149.604 161.674 149.623 161.662C149.661 161.63 150.216 162.224 151.163 163.133C152.11 164.042 153.461 165.254 155.071 166.447C156.68 167.634 158.233 168.574 159.382 169.212C160.531 169.849 161.263 170.203 161.245 170.253Z" fill="white"/>
<path d="M234.118 172.633C234.118 172.633 234.067 172.677 233.96 172.741C233.834 172.816 233.676 172.911 233.474 173.031C233.051 173.29 232.407 173.643 231.574 174.079C229.901 174.95 227.414 176.086 224.22 177.172C221.025 178.258 217.118 179.249 212.712 179.937C208.305 180.631 203.407 181.01 198.268 181.136C193.123 181.256 188.225 181.162 183.774 181.061C179.324 180.953 175.309 180.676 171.97 180.171C168.63 179.672 165.985 178.971 164.199 178.365C163.302 178.062 162.621 177.81 162.166 177.614C161.951 177.526 161.781 177.45 161.648 177.399C161.535 177.349 161.472 177.317 161.478 177.317C161.484 177.317 161.541 177.33 161.661 177.368C161.8 177.418 161.97 177.475 162.191 177.557C162.652 177.734 163.347 177.968 164.243 178.252C166.036 178.813 168.681 179.483 172.008 179.95C175.334 180.423 179.337 180.676 183.787 180.77C188.237 180.852 193.13 180.941 198.262 180.821C203.394 180.695 208.274 180.328 212.667 179.653C217.061 178.984 220.956 178.018 224.15 176.964C227.344 175.91 229.838 174.811 231.523 173.978C232.363 173.555 233.013 173.227 233.449 172.987C233.657 172.879 233.821 172.791 233.947 172.728C234.061 172.671 234.118 172.646 234.124 172.646L234.118 172.633Z" fill="white"/>
<path d="M161.465 195.106C161.465 195.106 161.181 195.069 160.682 194.936C160.121 194.784 159.42 194.589 158.58 194.362C156.813 193.863 154.37 193.156 151.687 192.348C148.998 191.546 146.574 190.801 144.819 190.246C143.992 189.974 143.304 189.753 142.748 189.57C142.262 189.406 141.997 189.299 142.003 189.28C142.01 189.261 142.287 189.318 142.786 189.45C143.348 189.602 144.049 189.797 144.888 190.025C146.656 190.523 149.099 191.23 151.782 192.038C154.471 192.84 156.895 193.585 158.65 194.141C159.477 194.412 160.165 194.633 160.72 194.816C161.206 194.98 161.472 195.087 161.465 195.106Z" fill="white"/>
<path d="M163.303 230.015C163.277 230.104 156.971 228.292 149.225 225.975C141.473 223.659 135.218 221.708 135.243 221.62C135.268 221.531 141.568 223.343 149.32 225.66C157.066 227.976 163.328 229.927 163.303 230.015Z" fill="white"/>
<path d="M254.539 154.535C254.539 154.535 254.306 154.749 253.845 155.084C253.384 155.425 252.709 155.886 251.856 156.441C250.152 157.552 247.722 158.985 244.931 160.361C242.141 161.731 239.521 162.773 237.596 163.442C236.637 163.777 235.854 164.029 235.305 164.187C234.755 164.345 234.452 164.42 234.446 164.402C234.44 164.383 234.73 164.263 235.267 164.067C235.86 163.846 236.611 163.562 237.52 163.227C239.414 162.501 242.009 161.435 244.792 160.071C247.57 158.708 250.007 157.306 251.736 156.252C252.557 155.741 253.245 155.318 253.782 154.983C254.261 154.68 254.533 154.522 254.546 154.541L254.539 154.535Z" fill="white"/>
<path d="M267.114 190.397C267.114 190.397 266.761 190.593 266.091 190.883C265.422 191.18 264.444 191.571 263.219 192.026C260.77 192.928 257.311 193.989 253.403 194.772C249.489 195.548 245.891 195.889 243.284 195.99C241.977 196.041 240.923 196.053 240.197 196.034C239.465 196.022 239.067 196.003 239.067 195.977C239.067 195.952 239.471 195.933 240.197 195.908C240.923 195.889 241.977 195.839 243.277 195.756C245.872 195.592 249.451 195.22 253.346 194.45C257.235 193.673 260.688 192.651 263.15 191.805C264.381 191.382 265.372 191.028 266.054 190.763C266.735 190.504 267.114 190.378 267.127 190.397H267.114Z" fill="white"/>
<path d="M248.941 247.773C248.941 247.773 248.941 247.647 248.972 247.419C249.016 247.154 249.067 246.826 249.13 246.422C249.206 245.993 249.294 245.463 249.351 244.85C249.414 244.232 249.521 243.537 249.553 242.754C249.578 242.363 249.603 241.959 249.629 241.536C249.654 241.113 249.641 240.665 249.648 240.21C249.679 239.295 249.61 238.317 249.559 237.288C249.401 235.236 249.086 232.989 248.543 230.672C247.975 228.362 247.224 226.222 246.428 224.321C245.999 223.387 245.614 222.484 245.172 221.683C244.957 221.279 244.768 220.881 244.553 220.509C244.339 220.142 244.13 219.789 243.928 219.454C243.55 218.773 243.133 218.198 242.792 217.68C242.457 217.157 242.142 216.727 241.877 216.38C241.637 216.052 241.441 215.78 241.283 215.566C241.151 215.376 241.088 215.275 241.094 215.269C241.1 215.263 241.182 215.351 241.334 215.528C241.504 215.736 241.719 215.989 241.978 216.304C242.262 216.639 242.59 217.062 242.944 217.579C243.297 218.091 243.726 218.659 244.124 219.334C244.332 219.669 244.547 220.022 244.768 220.382C244.989 220.748 245.185 221.146 245.412 221.55C245.866 222.352 246.27 223.255 246.706 224.195C247.527 226.102 248.29 228.261 248.865 230.59C249.414 232.926 249.723 235.192 249.862 237.262C249.9 238.298 249.957 239.282 249.919 240.21C249.906 240.671 249.913 241.119 249.881 241.542C249.85 241.965 249.818 242.376 249.786 242.773C249.742 243.556 249.616 244.257 249.534 244.875C249.458 245.494 249.351 246.018 249.256 246.447C249.168 246.845 249.098 247.173 249.042 247.432C248.991 247.659 248.953 247.773 248.947 247.773H248.941Z" fill="white"/>
<path d="M273.326 228.425C273.288 228.425 273.275 227.913 273.13 226.998C272.998 226.089 272.638 224.788 271.893 223.318C271.154 221.847 269.949 220.262 268.326 218.823C266.698 217.39 264.627 216.115 262.26 215.275C259.886 214.455 257.487 214.126 255.31 214.051C253.125 213.975 251.156 214.114 249.515 214.265C247.867 214.423 246.535 214.587 245.613 214.688C245.184 214.732 244.831 214.77 244.553 214.802C244.307 214.827 244.18 214.833 244.18 214.821C244.18 214.808 244.307 214.783 244.546 214.739C244.824 214.694 245.171 214.631 245.601 214.562C246.516 214.417 247.842 214.221 249.496 214.032C251.143 213.849 253.125 213.684 255.328 213.741C257.525 213.798 259.962 214.126 262.38 214.96C264.791 215.812 266.893 217.119 268.535 218.589C270.176 220.073 271.388 221.695 272.108 223.204C272.84 224.706 273.168 226.038 273.263 226.966C273.345 227.427 273.32 227.793 273.339 228.033C273.345 228.279 273.339 228.406 273.332 228.406L273.326 228.425Z" fill="white"/>
<path d="M205.414 210.149C205.414 210.149 205.294 210.181 205.055 210.213C204.783 210.238 204.442 210.276 204.026 210.32C203.085 210.396 201.803 210.509 200.238 210.635C197.037 210.882 192.619 211.185 187.726 211.437C182.834 211.696 178.402 211.848 175.196 211.879C173.592 211.892 172.292 211.898 171.395 211.866C170.979 211.854 170.638 211.841 170.36 211.835C170.127 211.822 170 211.81 170 211.803C170 211.797 170.127 211.778 170.36 211.772C170.632 211.765 170.972 211.753 171.395 211.74C172.336 211.715 173.624 211.683 175.189 211.645C178.396 211.551 182.821 211.361 187.707 211.103C192.574 210.825 196.974 210.579 200.219 210.396C201.785 210.307 203.072 210.238 204.013 210.181C204.43 210.162 204.77 210.149 205.048 210.137C205.282 210.13 205.408 210.137 205.408 210.137L205.414 210.149Z" fill="white"/>
<g opacity="0.3">
<path d="M209.082 211.463C213.059 212.63 218.57 212.921 222.446 211.444C219.409 215.749 213.558 217.314 208.482 215.907C203.407 214.505 198.723 209.424 198.331 204.171C200.793 207.511 205.099 210.295 209.082 211.463Z" fill="black"/>
</g>
<path d="M241.333 207.296C241.333 207.296 241.226 207.34 241.018 207.384C240.772 207.435 240.469 207.498 240.096 207.58C239.294 207.744 238.139 207.959 236.7 208.211C233.828 208.716 229.844 209.335 225.432 209.878C221.013 210.415 216.998 210.774 214.088 210.976C212.636 211.077 211.456 211.147 210.641 211.178C210.263 211.191 209.953 211.204 209.701 211.21C209.486 211.21 209.372 211.21 209.372 211.197C209.372 211.185 209.486 211.166 209.694 211.141C209.947 211.115 210.256 211.084 210.629 211.046C211.487 210.97 212.649 210.863 214.063 210.737C216.967 210.478 220.969 210.08 225.381 209.543C229.794 209.001 233.777 208.42 236.656 207.978C238.057 207.763 239.212 207.58 240.065 207.448C240.437 207.391 240.746 207.347 240.993 207.315C241.207 207.29 241.321 207.277 241.321 207.29L241.333 207.296Z" fill="white"/>
<g opacity="0.3">
<path d="M234.718 179.192C233.72 190.618 236.833 201.962 239.919 213.003C240.109 213.678 240.311 214.379 240.765 214.909C241.226 215.439 242.022 215.749 242.647 215.433C243.612 214.947 243.48 213.552 243.208 212.51C240.349 201.558 237.489 190.612 234.629 179.659" fill="black"/>
</g>
<path d="M74.8806 190.58L87.8531 254.275H200.471C201.715 254.275 202.718 253.265 202.718 252.028C202.718 250.784 201.708 249.78 200.471 249.78H177.802L165.777 190.542C165.543 189.406 164.552 188.585 163.391 188.573L77.3173 187.632C75.7517 187.613 74.565 189.046 74.8806 190.58Z" fill="#E0E0E0"/>
<path d="M74.881 190.58C74.881 190.58 74.8684 190.517 74.8432 190.391C74.8242 190.264 74.8053 190.069 74.8305 189.81C74.8747 189.317 75.1399 188.491 76.0236 187.948C76.2383 187.815 76.4908 187.72 76.7685 187.651C77.0463 187.588 77.3493 187.594 77.6523 187.594C78.2709 187.594 78.9464 187.607 79.6787 187.607C81.1432 187.619 82.835 187.632 84.7477 187.651C92.3861 187.72 103.477 187.828 117.29 187.96C124.202 188.03 131.79 188.105 139.977 188.187C144.068 188.232 148.31 188.276 152.685 188.32C154.875 188.345 157.097 188.364 159.351 188.389C160.481 188.402 161.617 188.415 162.76 188.427C163.05 188.434 163.322 188.427 163.631 188.446C163.934 188.478 164.231 188.566 164.502 188.699C165.045 188.964 165.493 189.431 165.739 189.993C165.866 190.277 165.916 190.58 165.973 190.858L166.15 191.716C166.263 192.291 166.383 192.865 166.503 193.44C166.737 194.589 166.977 195.75 167.21 196.918C167.684 199.254 168.163 201.615 168.649 204.001C169.622 208.779 170.619 213.672 171.635 218.665C173.668 228.652 175.776 239.042 177.954 249.742L177.803 249.616C182.058 249.616 186.426 249.616 190.857 249.616C193.073 249.616 195.308 249.616 197.561 249.616H199.253H200.099C200.371 249.616 200.674 249.603 200.977 249.667C201.57 249.787 202.107 250.153 202.454 250.651C202.801 251.15 202.946 251.781 202.851 252.381C202.75 253.12 202.271 253.782 201.621 254.136C201.292 254.313 200.932 254.407 200.56 254.42H199.518C198.142 254.42 196.766 254.42 195.396 254.42C192.657 254.42 189.936 254.42 187.228 254.42C181.818 254.42 176.477 254.42 171.212 254.42C160.695 254.42 150.501 254.42 140.722 254.414C121.172 254.401 103.301 254.395 87.8473 254.388H87.7526L87.7336 254.294C83.7693 234.718 80.5435 218.791 78.3088 207.75C77.1978 202.233 76.3393 197.947 75.7522 195.024C75.4618 193.572 75.2409 192.461 75.0957 191.704C74.9505 190.952 74.881 190.567 74.881 190.567C74.881 190.567 74.9694 190.946 75.1272 191.697C75.285 192.449 75.5186 193.56 75.8216 195.011C76.4213 197.928 77.3051 202.214 78.4414 207.725C80.7013 218.76 83.965 234.674 87.9735 254.243L87.8599 254.149C103.313 254.142 121.184 254.13 140.735 254.123C150.507 254.123 160.702 254.123 171.225 254.117C176.483 254.117 181.824 254.117 187.24 254.117C189.948 254.117 192.669 254.117 195.409 254.117C196.779 254.117 198.155 254.117 199.531 254.117H200.56C200.882 254.104 201.198 254.016 201.482 253.865C202.043 253.555 202.46 252.981 202.548 252.337C202.631 251.813 202.504 251.264 202.201 250.828C201.905 250.393 201.431 250.077 200.92 249.97C200.667 249.913 200.396 249.925 200.105 249.925H199.26H197.568C195.32 249.925 193.086 249.925 190.864 249.925C186.426 249.925 182.064 249.925 177.809 249.925H177.683L177.658 249.799C175.486 239.099 173.378 228.709 171.351 218.722C170.341 213.729 169.35 208.836 168.378 204.051C167.892 201.659 167.412 199.298 166.945 196.962C166.711 195.794 166.472 194.639 166.238 193.484C166.124 192.909 166.004 192.335 165.891 191.76L165.72 190.902C165.664 190.612 165.613 190.34 165.499 190.088C165.285 189.583 164.881 189.166 164.395 188.926C164.149 188.806 163.883 188.73 163.618 188.699C163.353 188.674 163.056 188.686 162.772 188.68C161.63 188.667 160.493 188.655 159.364 188.642C157.11 188.617 154.888 188.591 152.697 188.566C148.323 188.516 144.081 188.465 139.99 188.421C131.809 188.326 124.215 188.238 117.302 188.156C103.484 187.985 92.3987 187.847 84.7604 187.752C82.8539 187.727 81.1621 187.701 79.6913 187.682C78.959 187.67 78.2836 187.664 77.6649 187.651C77.3556 187.651 77.0652 187.638 76.7938 187.695C76.5286 187.758 76.2761 187.847 76.0678 187.979C75.203 188.503 74.9315 189.311 74.8747 189.797C74.8242 190.302 74.9063 190.561 74.8937 190.567L74.881 190.58Z" fill="#263238"/>
<path d="M126.771 219.732C126.771 221.783 125.104 223.45 123.053 223.45C121.001 223.45 119.335 221.783 119.335 219.732C119.335 217.68 121.001 216.014 123.053 216.014C125.104 216.014 126.771 217.68 126.771 219.732Z" fill="white"/>
<path d="M74.9821 191.098C74.9821 191.098 75.1146 191.085 75.3671 191.085C75.6323 191.085 76.011 191.085 76.5034 191.079C77.5134 191.079 78.9906 191.079 80.8844 191.079C84.6973 191.098 90.1956 191.123 96.988 191.154C110.592 191.249 129.372 191.382 150.109 191.527C152.704 191.546 155.267 191.571 157.792 191.59C158.423 191.59 159.054 191.603 159.679 191.603C159.982 191.609 160.31 191.59 160.645 191.659C160.967 191.722 161.283 191.855 161.56 192.032C162.116 192.385 162.532 192.947 162.703 193.585C162.842 194.21 162.949 194.797 163.075 195.403C164.029 200.2 164.944 204.828 165.821 209.24C167.564 218.059 169.136 226 170.455 232.673C171.762 239.339 172.816 244.73 173.548 248.473C173.908 250.329 174.186 251.781 174.375 252.772C174.463 253.258 174.533 253.631 174.583 253.89C174.628 254.142 174.647 254.275 174.647 254.275C174.647 254.275 174.609 254.149 174.558 253.896C174.501 253.637 174.426 253.265 174.318 252.785C174.116 251.794 173.82 250.355 173.434 248.499C172.677 244.762 171.591 239.371 170.24 232.717C168.902 226.051 167.311 218.109 165.544 209.297C164.666 204.891 163.738 200.264 162.779 195.466C162.659 194.873 162.545 194.254 162.413 193.673C162.261 193.111 161.895 192.613 161.403 192.303C161.156 192.145 160.879 192.032 160.594 191.975C160.31 191.912 160.007 191.931 159.692 191.925C159.067 191.925 158.436 191.912 157.804 191.912C155.279 191.893 152.716 191.874 150.122 191.849C129.385 191.666 110.604 191.502 97.0007 191.382C90.2082 191.306 84.7099 191.249 80.897 191.205C79.0032 191.18 77.5324 191.154 76.5223 191.142C76.03 191.129 75.6512 191.123 75.3861 191.116C75.1272 191.11 75.001 191.098 75.001 191.098H74.9821Z" fill="#263238"/>
<path d="M225.382 94.356C225.716 106.104 220.736 117.896 212.075 125.837C210.092 120.093 208.11 114.348 206.128 108.604" fill="#263238"/>
<path d="M180.536 60.0844C185.643 57.2942 191.811 56.8902 197.518 58.0327C203.224 59.1753 208.539 61.7572 213.577 64.6737C216.405 66.3087 219.221 68.1078 221.253 70.6644C224.959 75.3295 228.626 82.993 228.98 88.9396C229.27 93.7498 227.427 105.788 225.394 110.156C223.532 114.165 214.795 117.214 210.49 118.205L170.948 72.2173C172.343 67.1104 175.89 62.6221 180.536 60.0844Z" fill="#263238"/>
<path d="M173.719 66.2836L183.2 64.5854C178.018 76.9267 176.616 105.144 173.649 118.199C170.158 113.13 162.04 97.6891 162.476 91.5469C162.911 85.4046 162.457 65.2357 173.725 66.2836H173.719Z" fill="#263238"/>
<path d="M218.665 86.8249C218.154 79.6158 213.488 73.7008 206.481 71.9143L184.652 66.3466C175.221 65.3302 168.921 76.9329 168.302 86.4019C167.614 96.9188 167.191 108.023 168.422 115.876C170.897 131.664 182.986 133.703 182.986 133.703C182.986 133.678 182.986 141.215 182.998 145.823L190.302 176.061L213.842 143.544L218.715 87.0143C218.715 86.7428 218.684 87.1847 218.659 86.8249H218.665Z" fill="#FFBE9D"/>
<path d="M173.043 98.3266C173.006 99.3934 173.877 100.309 174.994 100.372C176.105 100.435 177.046 99.6207 177.084 98.5538C177.121 97.487 176.25 96.5653 175.139 96.5085C174.022 96.4454 173.088 97.2597 173.043 98.3266Z" fill="#263238"/>
<path d="M170.67 92.5885C170.922 92.8536 172.456 91.7236 174.634 91.7299C176.812 91.711 178.409 92.8347 178.643 92.5695C178.756 92.4496 178.504 91.9761 177.809 91.4648C177.128 90.9598 175.96 90.4674 174.602 90.4674C173.245 90.4674 172.103 90.9661 171.446 91.4774C170.777 91.9888 170.55 92.4685 170.67 92.5822V92.5885Z" fill="#263238"/>
<path d="M192.032 98.3266C191.994 99.3934 192.865 100.309 193.982 100.372C195.093 100.435 196.034 99.6207 196.072 98.5538C196.11 97.487 195.238 96.5653 194.127 96.5085C193.01 96.4454 192.076 97.2597 192.038 98.3329L192.032 98.3266Z" fill="#263238"/>
<path d="M191.356 92.5885C191.609 92.8536 193.143 91.7236 195.321 91.7299C197.498 91.711 199.096 92.8347 199.329 92.5695C199.443 92.4496 199.19 91.9761 198.496 91.4648C197.814 90.9598 196.646 90.4674 195.289 90.4674C193.932 90.4674 192.789 90.9661 192.133 91.4774C191.463 91.9888 191.236 92.4685 191.356 92.5885Z" fill="#263238"/>
<path d="M184.551 109.696C184.564 109.57 183.206 109.336 181.016 109.052C180.46 108.995 179.936 108.881 179.842 108.503C179.709 108.099 179.943 107.499 180.214 106.855C180.738 105.51 181.294 104.103 181.868 102.626C184.166 96.597 185.832 91.6415 185.586 91.5531C185.34 91.4648 183.282 96.275 180.984 102.297C180.429 103.781 179.905 105.201 179.4 106.552C179.185 107.183 178.825 107.903 179.11 108.736C179.261 109.153 179.665 109.456 180.025 109.551C180.378 109.658 180.694 109.664 180.972 109.683C183.181 109.809 184.551 109.822 184.557 109.696H184.551Z" fill="#263238"/>
<path d="M203.925 128.084C203.925 128.084 198.787 138.93 182.992 137.415V133.703C182.992 133.703 193.389 134.385 203.925 128.084Z" fill="#EB996E"/>
<path d="M192.044 84.7165C192.259 85.3098 194.43 85.0321 196.987 85.3477C199.55 85.6129 201.608 86.3641 201.949 85.8338C202.1 85.5813 201.741 85.0195 200.914 84.445C200.087 83.8706 198.774 83.3214 197.24 83.1509C195.706 82.9805 194.298 83.2204 193.37 83.5991C192.429 83.9779 191.956 84.4387 192.051 84.7228L192.044 84.7165Z" fill="#263238"/>
<path d="M171.383 85.9221C171.768 86.4145 173.264 85.9095 175.07 85.8842C176.875 85.8022 178.403 86.2251 178.756 85.7075C178.914 85.455 178.674 84.9626 178.005 84.4891C177.349 84.022 176.25 83.6369 175.007 83.6685C173.769 83.7064 172.69 84.1483 172.065 84.6596C171.427 85.1646 171.213 85.6759 171.383 85.9158V85.9221Z" fill="#263238"/>
<path d="M172.589 71.9838C173.555 69.6102 176.162 68.1835 178.718 68.051C181.281 67.9184 183.781 68.8906 185.997 70.172C195.397 75.6072 200.232 88.7313 209.518 94.3559C211.803 95.7383 214.776 94.4695 216.721 96.3065C218.665 98.1372 219.921 101.066 218.848 103.509C220.098 101.799 221.361 100.056 222.074 98.0551C222.781 96.0603 222.876 93.7372 221.815 91.9002C221.013 90.5051 219.593 89.4446 219.202 87.8854C218.861 86.5155 219.397 85.0762 219.341 83.6622C219.277 82.2229 218.602 80.8909 217.895 79.6347C214.259 73.2021 209.253 67.3818 202.808 63.7584C198.597 61.3911 193.781 60.0086 188.951 60.1728C184.122 60.3369 179.306 62.1107 175.77 65.406C173.694 67.344 171.509 69.3451 172.589 71.9774" fill="#263238"/>
<path d="M216.5 98.2635C216.664 97.809 224.902 94.8421 225.01 103.591C225.117 112.095 216.538 110.422 216.519 110.176C216.5 109.929 216.5 98.2635 216.5 98.2635Z" fill="#FFBE9D"/>
<path d="M219.114 106.931C219.151 106.905 219.265 107.032 219.511 107.145C219.757 107.253 220.174 107.328 220.616 107.158C221.512 106.817 222.251 105.384 222.282 103.856C222.295 103.08 222.131 102.348 221.847 101.742C221.582 101.123 221.178 100.694 220.723 100.618C220.275 100.517 219.953 100.795 219.852 101.035C219.738 101.275 219.795 101.445 219.751 101.458C219.726 101.477 219.568 101.319 219.631 100.965C219.663 100.795 219.764 100.593 219.959 100.429C220.161 100.258 220.458 100.176 220.774 100.208C221.43 100.246 222.024 100.845 222.333 101.514C222.674 102.184 222.882 103.011 222.87 103.882C222.832 105.592 221.967 107.208 220.742 107.575C220.142 107.739 219.644 107.562 219.385 107.36C219.12 107.152 219.076 106.962 219.101 106.95L219.114 106.931Z" fill="#EB996E"/>
<path d="M219.883 93.895C219.883 93.895 219.7 93.8066 219.372 93.6109C219.044 93.4026 218.545 93.1312 217.945 92.7019C216.759 91.8434 215.111 90.4799 213.356 88.5229C211.589 86.5786 209.745 84.0472 207.744 81.2318C205.737 78.4163 203.534 75.3042 200.724 72.4951C199.291 71.1189 197.789 69.8879 196.198 68.9158C194.607 67.9373 192.941 67.2177 191.306 66.6937C188.03 65.6395 184.886 65.4122 182.298 65.589C179.697 65.7531 177.639 66.3023 176.263 66.7695C175.562 66.9841 175.045 67.2177 174.691 67.3502C174.331 67.4891 174.142 67.5585 174.135 67.5459C174.135 67.5333 174.312 67.4449 174.659 67.2808C175.013 67.123 175.518 66.8642 176.219 66.6243C177.589 66.1066 179.653 65.5132 182.285 65.3112C184.899 65.0966 188.093 65.2986 191.42 66.3528C193.08 66.8705 194.778 67.5964 196.4 68.5875C198.029 69.5723 199.557 70.8222 201.002 72.211C203.843 75.058 206.046 78.1954 208.041 81.0172C210.029 83.8452 211.841 86.3766 213.571 88.3335C215.288 90.3031 216.891 91.6793 218.046 92.5693C218.627 93.0112 219.113 93.3016 219.423 93.5289C219.738 93.7498 219.902 93.8698 219.896 93.8824L219.883 93.895Z" fill="#455A64"/>
<path d="M220.079 108.433C220.906 108.282 221.803 108.856 222.011 109.67C222.219 110.485 221.695 111.419 220.894 111.672C220.092 111.93 219.126 111.47 218.823 110.68C218.52 109.898 218.918 108.907 219.682 108.553" fill="white"/>
<path d="M219.681 108.559C219.732 108.61 219.126 108.856 218.918 109.702C218.817 110.106 218.873 110.643 219.252 111.034C219.612 111.425 220.256 111.672 220.837 111.489C221.417 111.299 221.803 110.725 221.866 110.201C221.948 109.664 221.676 109.191 221.367 108.919C220.704 108.351 220.073 108.496 220.079 108.427C220.079 108.408 220.212 108.339 220.477 108.332C220.742 108.332 221.146 108.408 221.537 108.705C221.922 108.982 222.295 109.557 222.219 110.239C222.156 110.895 221.714 111.602 220.95 111.855C220.187 112.088 219.41 111.766 218.981 111.268C218.526 110.756 218.495 110.075 218.653 109.62C218.798 109.153 219.082 108.85 219.303 108.705C219.524 108.553 219.675 108.528 219.681 108.553V108.559Z" fill="#263238"/>
<path d="M217.743 96.3002C217.876 98.6233 217.983 101.073 216.91 103.137C215.837 105.201 213.129 106.602 211.109 105.447C209.461 104.507 208.969 102.398 208.691 100.517C207.883 95.1008 207.517 89.6277 206.665 84.2178L217.743 96.2939V96.3002Z" fill="#263238"/>
<path d="M174.685 67.9375C174.691 67.988 175.436 67.7986 176.8 67.7544C178.157 67.7165 180.158 67.8996 182.424 68.7834C183.554 69.2252 184.76 69.806 185.947 70.6014C187.14 71.3905 188.352 72.3311 189.583 73.379C192.02 75.4874 194.551 78.0251 196.704 81.0552C197.783 82.5702 198.743 84.1295 199.778 85.5751C200.807 87.0207 201.95 88.3337 203.187 89.4069C205.661 91.5532 208.205 93.0619 210.371 94.2108C212.548 95.3597 214.367 96.1677 215.616 96.7232C216.21 96.9757 216.69 97.1777 217.068 97.3419C217.403 97.4808 217.58 97.5439 217.586 97.5249C217.592 97.5123 217.428 97.4176 217.106 97.2535C216.734 97.0704 216.267 96.8369 215.692 96.5528C214.461 95.9468 212.668 95.0946 210.528 93.9141C208.395 92.7273 205.889 91.206 203.471 89.0723C202.265 88.0118 201.16 86.7303 200.15 85.2973C199.134 83.8706 198.181 82.3051 197.089 80.7711C194.905 77.6968 192.342 75.1465 189.867 73.0381C188.617 71.9902 187.386 71.0496 186.162 70.2668C184.937 69.4777 183.7 68.897 182.538 68.4677C180.209 67.6029 178.157 67.4766 176.787 67.5713C176.099 67.6155 175.569 67.7102 175.215 67.7923C174.862 67.8743 174.679 67.9311 174.685 67.9438V67.9375Z" fill="#455A64"/>
<path d="M217.977 91.0481C217.977 91.0481 218.229 91.2501 218.728 91.5531C219.309 91.894 220.028 92.3169 220.881 92.8156C221.114 92.9482 221.354 93.0871 221.606 93.2322C221.878 93.3774 222.175 93.51 222.534 93.5416C222.711 93.5542 222.926 93.5416 223.109 93.409C223.292 93.2827 223.412 93.0744 223.425 92.8472C223.443 92.399 223.204 92.0707 223.021 91.774C222.257 90.5494 221.411 89.1984 220.521 87.7718L220.186 88.0874C220.982 88.6808 221.91 89.1479 222.92 89.451C223.93 89.754 224.971 89.8676 225.962 89.8108C226.208 89.8045 226.48 89.7666 226.732 89.6782C226.979 89.5898 227.269 89.4194 227.395 89.1038C227.521 88.7944 227.402 88.4472 227.25 88.2452C227.099 88.0243 226.915 87.8665 226.764 87.715C225.501 86.4903 224.555 85.2025 223.866 84.0599C222.503 81.7621 222.112 80.1145 222.023 80.1461C221.998 80.1524 222.067 80.569 222.288 81.2887C222.516 82.0083 222.907 83.0436 223.57 84.2304C224.233 85.4172 225.167 86.7554 226.448 88.0306C226.764 88.3336 227.08 88.6745 226.96 88.9459C226.859 89.2111 226.373 89.3436 225.931 89.35C224.99 89.4005 224.005 89.2868 223.052 89.0028C222.099 88.7187 221.215 88.2768 220.464 87.7213L219.448 86.9764L220.123 88.0306C221.032 89.451 221.891 90.7829 222.673 92.0013C222.869 92.298 223.046 92.5884 223.033 92.8282C223.021 93.0681 222.819 93.2133 222.541 93.1881C221.992 93.1565 221.493 92.784 221.013 92.5568C220.136 92.1023 219.391 91.7235 218.791 91.4142C218.267 91.1554 217.977 91.0228 217.958 91.0481H217.977Z" fill="#455A64"/>
<path d="M192.834 113.717C192.543 112.423 191.218 111.425 189.898 111.558C188.926 111.653 188.055 112.316 187.613 113.18C187.171 114.045 187.152 115.106 187.487 116.021L187.531 116.223C188.421 117.208 189.968 117.555 191.173 117C192.379 116.444 193.124 115.005 192.834 113.711V113.717Z" fill="#EB996E"/>
<path d="M185.947 116.274C185.947 115.945 188.15 116.046 189.804 114.241C191.464 112.436 191.338 110.075 191.647 110.075C191.786 110.049 192.051 110.617 192.026 111.609C192.013 112.581 191.628 113.988 190.612 115.093C189.595 116.198 188.289 116.627 187.386 116.659C186.458 116.697 185.928 116.425 185.947 116.274Z" fill="#263238"/>
<path d="M260.158 250.071C260.158 250.071 260.108 250.083 260.007 250.096C259.887 250.108 259.741 250.121 259.571 250.14C259.161 250.172 258.593 250.222 257.886 250.279C256.421 250.392 254.3 250.538 251.674 250.695C246.428 251.005 239.175 251.32 231.151 251.459C223.128 251.592 215.868 251.516 210.61 251.384C207.984 251.314 205.857 251.245 204.392 251.175C203.679 251.137 203.117 251.112 202.7 251.093C202.523 251.081 202.378 251.074 202.258 251.062C202.157 251.055 202.107 251.043 202.107 251.043C202.107 251.043 202.157 251.03 202.258 251.03C202.378 251.03 202.523 251.03 202.7 251.03C203.117 251.03 203.679 251.043 204.392 251.049C205.888 251.074 208.009 251.106 210.61 251.15C215.862 251.226 223.122 251.264 231.139 251.131C239.156 250.998 246.403 250.714 251.655 250.462C254.256 250.329 256.371 250.228 257.867 250.153C258.58 250.121 259.142 250.096 259.558 250.077C259.735 250.077 259.88 250.071 260 250.064C260.101 250.064 260.152 250.064 260.152 250.071H260.158Z" fill="white"/>
<defs>
<filter id="filter0_d_4_1836" x="32.6909" y="0.123047" width="167.257" height="161.059" filterUnits="userSpaceOnUse" color-interpolation-filters="sRGB">
<feFlood flood-opacity="0" result="BackgroundImageFix"/>
<feColorMatrix in="SourceAlpha" type="matrix" values="0 0 0 0 0 0 0 0 0 0 0 0 0 0 0 0 0 0 127 0" result="hardAlpha"/>
<feOffset dx="2" dy="2"/>
<feGaussianBlur stdDeviation="10"/>
<feComposite in2="hardAlpha" operator="out"/>
<feColorMatrix type="matrix" values="0 0 0 0 0 0 0 0 0 0 0 0 0 0 0 0 0 0 0.04 0"/>
<feBlend mode="normal" in2="BackgroundImageFix" result="effect1_dropShadow_4_1836"/>
<feBlend mode="normal" in="SourceGraphic" in2="effect1_dropShadow_4_1836" result="shape"/>
</filter>
<linearGradient id="paint0_linear_4_1836" x1="88.5651" y1="-3.49465" x2="156.817" y2="157.57" gradientUnits="userSpaceOnUse">
<stop stop-color="#C0C0C0" stop-opacity="0.13"/>
<stop offset="0.916667" stop-color="#A8A6A6" stop-opacity="0.31"/>
</linearGradient>
</defs>
</svg>
