<svg width="383" height="360" viewBox="0 0 383 360" fill="none" xmlns="http://www.w3.org/2000/svg">
<path fill-rule="evenodd" clip-rule="evenodd" d="M152.247 289.802L150.568 290.31L148.87 290.796L147.153 291.259L145.418 291.699L143.665 292.114L141.894 292.505L140.106 292.87L138.302 293.21L136.482 293.523L134.646 293.81L132.796 294.069L130.931 294.302L129.052 294.506L127.16 294.682L125.254 294.831L123.337 294.951L121.406 295.043L119.465 295.106L117.512 295.141L115.548 295.147L113.574 295.124L111.59 295.072L109.596 294.991L107.594 294.881L105.584 294.741L103.567 294.57L101.543 294.367L99.5147 294.132L97.4832 293.863L95.4506 293.559L93.4187 293.218L91.3897 292.838L89.3658 292.418L87.3493 291.957L85.3429 291.453L83.349 290.905L81.3703 290.312L79.4095 289.672L77.4694 288.985L75.5528 288.25L73.6624 287.466L71.8008 286.632L69.9708 285.749L68.1751 284.816L66.4162 283.833L64.6965 282.8L63.0185 281.718L61.3843 280.587L59.7961 279.408L58.256 278.182L56.7655 276.91L55.3267 275.593L53.9408 274.232L52.6093 272.829L51.3333 271.385L50.1138 269.903L48.9515 268.383L47.8471 266.828L46.8008 265.24L45.8128 263.621L44.8832 261.972L44.0115 260.297L43.1973 258.597L42.44 256.875L41.7386 255.133L41.092 253.372L40.4989 251.596L39.9578 249.807L39.4668 248.007L39.0243 246.197L38.628 244.38L38.2759 242.559L37.9653 240.734L37.6939 238.909L37.4589 237.084L37.2577 235.262L37.0872 233.443L36.9445 231.63L36.8268 229.824L36.7309 228.025L36.6537 226.235L36.5922 224.455L36.5434 222.686L36.5043 220.928L36.472 219.181L36.4436 217.446L36.4165 215.723L36.3882 214.012L36.3563 212.313L36.3184 210.626L36.2728 208.949L36.2176 207.284L36.1513 205.628L36.0726 203.982L35.9806 202.344L35.8746 200.715L35.7542 199.092L35.6192 197.475L35.4699 195.862L35.3068 194.254L35.1306 192.649L34.9426 191.046L34.744 189.444L34.5365 187.842L34.3219 186.24L34.1023 184.637L33.88 183.032L33.6574 181.424L33.4372 179.814L33.2229 178.201L33.0179 176.585L32.8261 174.966L32.6516 173.344L32.4985 171.719L32.3709 170.093L32.2727 168.465L32.2079 166.837L32.1801 165.21L32.1925 163.585L32.248 161.962L32.3494 160.344L32.4995 158.732L32.7008 157.128L32.9558 155.532L33.2663 153.947L33.6344 152.374L34.0616 150.816L34.5494 149.273L35.0991 147.749L35.7115 146.244L36.3876 144.761L37.1278 143.301L37.9324 141.867L38.8016 140.46L39.7352 139.082L40.7327 137.735L41.7935 136.42L42.9166 135.138L44.1009 133.893L45.3448 132.684L46.6467 131.513L48.0045 130.381L49.416 129.288L50.8787 128.237L52.39 127.227L53.9468 126.259L55.546 125.332L57.1842 124.448L58.8579 123.605L60.5634 122.803L62.2968 122.042L64.0541 121.321L65.8314 120.638L67.6243 119.992L69.4288 119.382L71.2407 118.806L73.0557 118.262L74.8698 117.748L76.6786 117.262L78.4784 116.8L80.265 116.361L82.0348 115.942L83.7842 115.54L85.5097 115.151L87.208 114.773L88.8762 114.403L90.5116 114.037L92.1116 113.672L93.674 113.306L95.197 112.935L96.6789 112.555L98.1184 112.165L99.5145 111.761L100.867 111.34L102.174 110.9L103.437 110.438L104.657 109.953L105.832 109.441L106.965 108.902L108.056 108.334L109.108 107.735L110.121 107.105L111.098 106.442L112.041 105.747L112.952 105.018L113.833 104.257L114.689 103.463L115.52 102.637L116.332 101.78L117.125 100.894L117.904 99.979L118.672 99.0375L119.431 98.0714L120.185 97.0826L120.937 96.0735L121.69 95.0464L122.446 94.004L123.209 92.949L123.981 91.8839L124.763 90.8113L125.559 89.7333L126.369 88.6522L127.195 87.5696L128.038 86.4873L128.899 85.4066L129.779 84.3286L130.678 83.254L131.596 82.1834L132.533 81.1167L133.49 80.0538L134.465 78.9945L135.459 77.9383L136.472 76.8847L137.503 75.833L138.553 74.7824L139.62 73.7322L140.705 72.6815L141.808 71.6294L142.929 70.5753L144.067 69.5185L145.224 68.4584L146.399 67.3946L147.592 66.3269L148.804 65.2552L150.035 64.1798L151.287 63.1008L152.558 62.0189L153.851 60.9348L155.165 59.8496L156.502 58.7645L157.861 57.6808L159.244 56.6003L160.651 55.5248L162.082 54.4563L163.539 53.3973L165.02 52.35L166.527 51.3171L168.06 50.3015L169.619 49.3059L171.203 48.3334L172.814 47.3871L174.449 46.4702L176.109 45.5861L177.793 44.738L179.501 43.9292L181.231 43.1632L182.982 42.4431L184.753 41.7725L186.543 41.1544L188.35 40.592L190.172 40.0884L192.008 39.6466L193.855 39.2693L195.712 38.9594L197.575 38.7191L199.443 38.5511L201.313 38.4572L203.183 38.4396L205.05 38.4999L206.91 38.6397L208.762 38.8603L210.602 39.1626L212.428 39.5475L214.237 40.0155L216.025 40.5669L217.79 41.2017L219.528 41.9198L221.238 42.7207L222.916 43.6035L224.56 44.5674L226.167 45.6112L227.734 46.7332L229.259 47.9318L230.74 49.205L232.174 50.5506L233.56 51.9661L234.895 53.4488L236.179 54.9959L237.409 56.6041L238.584 58.2701L239.704 59.9902L240.768 61.7607L241.775 63.5774L242.725 65.4359L243.619 67.3317L244.456 69.26L245.239 71.2159L245.967 73.1944L246.643 75.1906L247.268 77.1996L247.844 79.2168L248.372 81.2373L248.856 83.257L249.298 85.2713L249.7 87.2763L250.064 89.268L250.394 91.2428L250.693 93.1974L250.963 95.1286L251.206 97.0336L251.427 98.9098L251.628 100.755L251.812 102.566L251.982 104.343L252.141 106.083L252.291 107.785L252.435 109.449L252.577 111.072L252.717 112.656L252.86 114.198L253.007 115.699L253.161 117.159L253.325 118.578L253.502 119.955L253.692 121.291L253.899 122.586L254.125 123.841L254.373 125.056L254.643 126.233L254.939 127.371L255.262 128.472L255.614 129.537L255.997 130.566L256.412 131.563L256.861 132.526L257.345 133.459L257.865 134.363L258.422 135.239L259.018 136.089L259.652 136.915L260.326 137.719L261.04 138.503L261.794 139.268L262.588 140.017L263.422 140.752L264.296 141.475L265.209 142.187L266.161 142.892L267.151 143.59L268.177 144.285L269.241 144.978L270.339 145.671L271.47 146.366L272.635 147.065L273.83 147.77L275.055 148.482L276.308 149.204L277.587 149.936L278.891 150.681L280.217 151.44L281.565 152.215L282.933 153.006L284.319 153.815L285.72 154.642L287.137 155.49L288.566 156.359L290.008 157.249L291.459 158.162L292.919 159.098L294.386 160.058L295.86 161.043L297.338 162.053L298.821 163.088L300.307 164.149L301.794 165.236L303.283 166.35L304.773 167.491L306.262 168.658L307.749 169.854L309.235 171.077L310.718 172.328L312.197 173.606L313.672 174.914L315.141 176.249L316.603 177.613L318.056 179.006L319.499 180.427L320.93 181.877L322.347 183.356L323.749 184.863L325.134 186.398L326.501 187.962L327.847 189.553L329.171 191.171L330.471 192.817L331.745 194.489L332.991 196.186L334.206 197.909L335.387 199.657L336.532 201.427L337.638 203.22L338.702 205.035L339.721 206.869L340.694 208.722L341.617 210.592L342.489 212.478L343.308 214.378L344.072 216.292L344.779 218.216L345.428 220.15L346.016 222.093L346.543 224.041L347.007 225.994L347.408 227.949L347.742 229.905L348.01 231.86L348.21 233.812L348.342 235.759L348.404 237.698L348.395 239.628L348.316 241.547L348.164 243.453L347.94 245.343L347.643 247.215L347.273 249.068L346.83 250.899L346.313 252.705L345.723 254.486L345.059 256.239L344.322 257.961L343.513 259.651L342.631 261.307L341.679 262.927L340.656 264.509L339.564 266.052L338.403 267.553L337.176 269.011L335.883 270.425L334.526 271.793L333.107 273.115L331.628 274.387L330.091 275.611L328.497 276.784L326.85 277.906L325.15 278.976L323.402 279.994L321.606 280.959L319.766 281.87L317.884 282.728L315.963 283.533L314.005 284.284L312.013 284.981L309.99 285.625L307.937 286.216L305.859 286.754L303.757 287.24L301.633 287.675L299.49 288.057L297.331 288.389L295.158 288.671L292.973 288.904L290.777 289.087L288.574 289.222L286.364 289.31L284.151 289.35L281.934 289.344L279.717 289.292L277.501 289.194L275.287 289.052L273.077 288.866L270.873 288.636L268.675 288.364L266.485 288.05L264.306 287.695L262.137 287.301L259.982 286.868L257.842 286.399L255.718 285.894L253.613 285.356L251.527 284.786L249.462 284.186L247.421 283.56L245.403 282.908L243.413 282.234L241.449 281.541L239.516 280.831L237.613 280.109L235.742 279.377L233.905 278.639L232.104 277.901L230.339 277.166L228.611 276.437L226.921 275.72L225.27 275.018L223.658 274.335L222.085 273.676L220.551 273.043L219.055 272.441L217.597 271.873L216.176 271.342L214.791 270.85L213.44 270.402L212.123 269.998L210.837 269.641L209.581 269.332L208.353 269.074L207.15 268.867L205.97 268.711L204.812 268.608L203.672 268.557L202.549 268.558L201.44 268.611L200.342 268.716L199.253 268.87L198.171 269.074L197.093 269.325L196.016 269.622L194.94 269.962L193.861 270.345L192.777 270.768L191.686 271.228L190.587 271.723L189.478 272.251L188.356 272.809L187.221 273.394L186.071 274.004L184.904 274.636L183.721 275.287L182.518 275.955L181.297 276.636L180.055 277.33L178.792 278.031L177.507 278.74L176.201 279.452L174.873 280.165L173.521 280.878L172.147 281.589L170.75 282.294L169.331 282.993L167.888 283.683L166.423 284.363L164.935 285.032L163.424 285.687L161.891 286.328L160.337 286.952L158.761 287.56L157.163 288.15L155.545 288.721L153.906 289.272L152.247 289.802Z" fill="url(#paint0_linear_4_1581)"/>
<path d="M67.0552 199.682C67.0552 199.682 72.5161 197.889 75.1374 210.476C77.7587 223.063 78.147 230.024 78.147 230.024C78.147 230.024 79.0026 232.743 81.011 231.665C83.0194 230.587 86.3749 226.886 88.8687 228.4C91.4596 229.969 91.5264 233.349 89.7303 237.801C87.9343 242.253 84.3664 252.151 84.0448 253.048C83.7293 253.926 83.8871 255.392 85.3676 254.877C86.8542 254.362 96.2349 248.323 98.838 252.939C101.441 257.555 94.4025 269.136 93.6562 270.421C92.9098 271.699 93.019 272.365 93.5833 272.886C94.1476 273.407 97.1087 271.081 99.8513 269.47C102.588 267.864 106.046 266.477 107.327 269.264C108.607 272.05 106.635 281.645 93.4559 294.511L86.9574 300.072L78.8023 297.358C61.7277 290.483 56.2424 282.366 56.3577 279.301C56.473 276.236 60.1986 276.199 63.3478 276.642C66.4969 277.084 70.1194 278.107 70.441 277.411C70.7626 276.714 70.6109 276.06 69.4337 275.157C68.2566 274.255 57.3225 266.229 57.9657 260.971C58.6089 255.713 69.5915 257.718 71.163 257.633C72.7346 257.542 72.3159 256.131 71.6909 255.441C71.0538 254.732 63.9727 246.942 60.6112 243.513C57.2497 240.079 56.024 236.929 57.8201 234.494C59.5494 232.144 64.0638 234.288 66.3331 234.518C68.6024 234.748 68.3537 231.907 68.3537 231.907C68.3537 231.907 66.0601 225.329 63.6694 212.693C61.2787 200.057 67.1644 199.651 67.1644 199.651" fill="#F3F6FF"/>
<path d="M87.0243 298.279C85.2343 289.005 82.6556 276.218 79.7552 262.098C76.8609 247.984 74.2457 235.203 72.4071 225.941C71.4909 221.319 70.7506 217.575 70.2349 214.971C69.98 213.687 69.7798 212.681 69.6402 211.991C69.5735 211.657 69.5189 211.403 69.4764 211.215C69.44 211.04 69.4097 210.955 69.4097 210.955C69.4097 210.955 69.4157 211.046 69.4461 211.221C69.4764 211.409 69.525 211.669 69.5796 212.003C69.707 212.699 69.889 213.705 70.1196 214.995C70.5929 217.594 71.3028 221.349 72.1948 225.983C73.9847 235.257 76.5635 248.044 79.4579 262.158C82.3582 276.278 84.9674 289.059 86.8059 298.321" fill="#D8E0FE"/>
<path d="M84.3854 233.767C84.3854 233.767 84.2397 233.936 84.0213 234.264C83.8029 234.597 83.4995 235.081 83.1294 235.687C82.3952 236.905 81.4182 238.607 80.3807 240.509C79.3673 242.381 78.4511 244.077 77.7473 245.385C77.4317 245.96 77.1648 246.457 76.9403 246.857C76.7461 247.202 76.649 247.402 76.6672 247.414C76.6854 247.426 76.8128 247.245 77.0373 246.918C77.2558 246.584 77.5592 246.1 77.9232 245.488C78.6453 244.264 79.5979 242.55 80.6355 240.648C81.661 238.782 82.5893 237.098 83.3053 235.79C83.6269 235.215 83.8939 234.724 84.1184 234.318C84.3065 233.967 84.4036 233.773 84.3854 233.761V233.767Z" fill="#D8E0FE"/>
<path d="M75.8721 247.354C75.9146 247.287 72.4863 245.125 68.2146 242.532C63.9429 239.94 60.4479 237.892 60.4054 237.959C60.3629 238.025 63.7912 240.188 68.0629 242.78C72.3346 245.373 75.8296 247.42 75.8721 247.354Z" fill="#D8E0FE"/>
<path d="M81.2963 268.827C81.2963 268.827 81.0839 268.737 80.6956 268.627C80.2405 268.506 79.6883 268.355 79.0391 268.179C77.6435 267.798 75.7139 267.265 73.6024 266.604C71.4908 265.944 69.6037 265.284 68.2385 264.793C67.6014 264.569 67.0613 264.375 66.6184 264.218C66.2361 264.084 66.0177 264.018 66.0116 264.036C66.0055 264.054 66.2058 264.157 66.5759 264.321C66.946 264.484 67.4861 264.714 68.1596 264.987C69.5066 265.526 71.3937 266.223 73.5113 266.883C75.6229 267.549 77.5707 268.052 78.9844 268.379C79.6944 268.543 80.2647 268.664 80.6652 268.737C81.0657 268.809 81.2841 268.846 81.2902 268.827H81.2963Z" fill="#D8E0FE"/>
<path d="M91.7151 258.233C91.7151 258.233 91.5392 258.348 91.26 258.603C90.9809 258.857 90.5865 259.227 90.1011 259.687C89.1303 260.614 87.8075 261.904 86.3573 263.34C84.9071 264.781 83.6025 266.096 82.6742 267.053C82.207 267.531 81.8368 267.925 81.582 268.204C81.3271 268.482 81.1936 268.64 81.2118 268.652C81.224 268.664 81.3878 268.537 81.6669 268.282C81.946 268.034 82.3405 267.658 82.8259 267.198C83.7967 266.271 85.1195 264.981 86.5697 263.545C88.0199 262.104 89.3244 260.789 90.2528 259.832C90.72 259.354 91.0901 258.96 91.345 258.681C91.5998 258.403 91.7333 258.245 91.7151 258.233Z" fill="#D8E0FE"/>
<path d="M98.9163 276.581C98.9163 276.581 98.6978 276.739 98.3398 277.06C97.9454 277.423 97.4479 277.889 96.8532 278.447C95.6033 279.628 93.8922 281.27 92.0172 283.093C90.1423 284.922 88.4494 286.588 87.2419 287.799C86.6716 288.381 86.1922 288.866 85.816 289.253C85.4823 289.599 85.3063 289.798 85.3245 289.817C85.3367 289.829 85.543 289.659 85.901 289.338C86.2954 288.975 86.7929 288.508 87.3876 287.951C88.6375 286.77 90.3486 285.128 92.2236 283.305C94.0985 281.475 95.7853 279.81 96.9989 278.598C97.5692 278.017 98.0486 277.532 98.4248 277.144C98.7585 276.799 98.9345 276.599 98.9163 276.581Z" fill="#D8E0FE"/>
<path d="M85.5558 289.404C85.5558 289.404 85.2948 289.289 84.8034 289.132C84.2573 288.962 83.5595 288.744 82.7221 288.484C80.9685 287.939 78.5414 287.175 75.8898 286.261C73.2382 285.352 70.8536 284.468 69.1364 283.813C68.3173 283.504 67.6316 283.244 67.0977 283.044C66.6123 282.862 66.3453 282.778 66.3392 282.796C66.3331 282.814 66.588 282.941 67.0552 283.153C67.5224 283.365 68.2081 283.662 69.0576 284.007C70.7626 284.71 73.1351 285.625 75.7928 286.539C78.4504 287.454 80.8897 288.187 82.6614 288.684C83.5473 288.932 84.2694 289.12 84.767 289.241C85.2645 289.362 85.5436 289.423 85.5497 289.398L85.5558 289.404Z" fill="#D8E0FE"/>
<path d="M336.225 195.821C336.225 195.821 331.003 194.109 328.503 206.14C326.003 218.171 325.624 224.818 325.624 224.818C325.624 224.818 324.803 227.421 322.888 226.387C320.966 225.353 317.759 221.823 315.373 223.263C312.901 224.761 312.83 227.991 314.544 232.249C316.259 236.507 319.673 245.963 319.973 246.819C320.274 247.66 320.124 249.058 318.709 248.566C317.287 248.074 308.322 242.304 305.836 246.712C303.35 251.126 310.072 262.195 310.787 263.421C311.501 264.648 311.394 265.283 310.858 265.775C310.322 266.274 307.486 264.049 304.872 262.515C302.257 260.975 298.949 259.656 297.728 262.323C296.506 264.99 298.392 274.154 310.98 286.449L317.187 291.762L324.981 289.166C341.319 282.598 346.562 274.839 346.448 271.908C346.334 268.977 342.776 268.941 339.769 269.369C336.761 269.79 333.297 270.767 332.989 270.103C332.682 269.44 332.825 268.813 333.954 267.95C335.082 267.087 345.527 259.42 344.912 254.393C344.298 249.365 333.804 251.283 332.304 251.205C330.803 251.119 331.203 249.771 331.804 249.108C332.411 248.431 339.183 240.985 342.391 237.705C345.598 234.424 346.777 231.415 345.062 229.083C343.412 226.836 339.09 228.883 336.926 229.111C334.761 229.339 334.997 226.615 334.997 226.615C334.997 226.615 337.19 220.325 339.469 208.251C341.755 196.177 336.133 195.792 336.133 195.792" fill="#F3F6FF"/>
<path d="M317.145 290.043C318.853 281.178 321.324 268.962 324.089 255.469C326.861 241.983 329.354 229.767 331.111 220.916C331.983 216.502 332.69 212.922 333.183 210.433C333.426 209.206 333.619 208.25 333.747 207.58C333.812 207.266 333.862 207.017 333.904 206.838C333.94 206.674 333.969 206.589 333.969 206.589C333.969 206.589 333.969 206.674 333.933 206.846C333.904 207.024 333.862 207.273 333.804 207.587C333.683 208.25 333.512 209.213 333.29 210.447C332.84 212.929 332.161 216.516 331.304 220.952C329.597 229.816 327.132 242.033 324.36 255.526C321.589 269.019 319.095 281.235 317.338 290.086" fill="#D8E0FE"/>
<path d="M319.666 228.39C319.666 228.39 319.809 228.547 320.016 228.868C320.231 229.182 320.516 229.653 320.874 230.23C321.581 231.393 322.51 233.019 323.503 234.837C324.467 236.627 325.346 238.246 326.024 239.501C326.324 240.051 326.581 240.521 326.796 240.906C326.982 241.242 327.074 241.427 327.053 241.434C327.039 241.441 326.91 241.277 326.703 240.956C326.496 240.643 326.203 240.172 325.853 239.587C325.16 238.417 324.253 236.777 323.26 234.966C322.281 233.183 321.395 231.571 320.709 230.323C320.402 229.774 320.145 229.303 319.931 228.918C319.752 228.583 319.659 228.398 319.674 228.383L319.666 228.39Z" fill="#D8E0FE"/>
<path d="M327.804 241.377C327.761 241.313 331.04 239.245 335.126 236.77C339.212 234.288 342.549 232.334 342.591 232.399C342.634 232.463 339.355 234.531 335.269 237.006C331.19 239.487 327.847 241.441 327.804 241.377Z" fill="#D8E0FE"/>
<path d="M322.616 261.901C322.616 261.901 322.816 261.816 323.188 261.709C323.623 261.595 324.152 261.445 324.773 261.281C326.109 260.917 327.952 260.411 329.967 259.776C331.982 259.149 333.789 258.514 335.096 258.05C335.703 257.836 336.218 257.651 336.639 257.501C337.004 257.373 337.211 257.309 337.218 257.33C337.225 257.351 337.032 257.444 336.682 257.601C336.325 257.758 335.811 257.979 335.168 258.236C333.882 258.749 332.082 259.413 330.053 260.047C328.031 260.682 326.174 261.167 324.823 261.481C324.145 261.638 323.595 261.752 323.216 261.823C322.838 261.894 322.623 261.923 322.616 261.909V261.901Z" fill="#D8E0FE"/>
<path d="M312.666 251.775C312.666 251.775 312.83 251.889 313.101 252.124C313.366 252.367 313.744 252.716 314.209 253.158C315.137 254.043 316.402 255.276 317.788 256.653C319.174 258.029 320.417 259.284 321.31 260.204C321.752 260.661 322.11 261.039 322.353 261.303C322.595 261.566 322.724 261.716 322.71 261.73C322.695 261.745 322.545 261.616 322.274 261.381C322.01 261.139 321.631 260.789 321.167 260.347C320.238 259.463 318.974 258.229 317.588 256.852C316.202 255.476 314.959 254.221 314.066 253.301C313.623 252.844 313.266 252.466 313.023 252.203C312.78 251.939 312.651 251.789 312.666 251.775Z" fill="#D8E0FE"/>
<path d="M305.778 269.312C305.778 269.312 305.986 269.461 306.328 269.768C306.707 270.118 307.186 270.56 307.75 271.095C308.943 272.221 310.579 273.79 312.372 275.538C314.165 277.285 315.78 278.875 316.937 280.038C317.48 280.594 317.937 281.057 318.301 281.421C318.616 281.756 318.787 281.942 318.773 281.956C318.759 281.97 318.566 281.806 318.223 281.5C317.844 281.15 317.366 280.708 316.801 280.173C315.608 279.046 313.972 277.477 312.179 275.73C310.386 273.983 308.772 272.392 307.614 271.23C307.071 270.674 306.614 270.21 306.25 269.847C305.936 269.511 305.764 269.326 305.778 269.312Z" fill="#D8E0FE"/>
<path d="M318.544 281.571C318.544 281.571 318.794 281.464 319.266 281.314C319.787 281.15 320.452 280.943 321.252 280.701C322.931 280.18 325.245 279.453 327.781 278.575C330.317 277.705 332.596 276.857 334.239 276.236C335.025 275.944 335.675 275.694 336.189 275.502C336.654 275.33 336.911 275.245 336.918 275.259C336.925 275.281 336.682 275.395 336.232 275.601C335.782 275.801 335.132 276.086 334.318 276.422C332.689 277.092 330.424 277.969 327.881 278.839C325.345 279.716 323.009 280.415 321.316 280.886C320.466 281.121 319.78 281.3 319.302 281.421C318.823 281.535 318.559 281.592 318.552 281.571H318.544Z" fill="#D8E0FE"/>
<path d="M195.492 211.827C195.492 211.827 197.576 210.754 199.418 211.157C201.26 211.56 207.946 215.921 207.946 215.921L213.336 214.916L216.511 230.13L195.486 238.869V211.827H195.492Z" fill="#AE7461"/>
<path d="M179.943 217.13C179.943 217.13 184.762 216.523 186.505 215.648C188.248 214.774 192.409 211.083 193.284 211.151C194.158 211.22 197.309 211.821 197.309 211.821L196.032 215.648C196.032 215.648 202.339 219.475 204.219 220.883C206.098 222.291 212.002 228.599 212.269 230.143C212.536 231.687 212.071 233.498 211.333 234.1C210.595 234.702 207.909 233.498 207.909 233.498C207.909 233.498 208.312 234.906 207.307 236.252C206.303 237.592 203.952 237.127 203.952 237.127C203.952 237.127 203.753 239.341 202.674 239.744C201.601 240.147 199.182 238.938 199.182 238.938C199.182 238.938 198.45 240.817 197.576 241.016C196.701 241.214 194.214 239.738 194.214 239.738C194.214 239.738 183.478 232.022 181.065 230.881C178.653 229.74 177.915 229.672 177.915 229.672L179.943 217.13Z" fill="#FFBE9D"/>
<path d="M199.182 238.931C199.132 238.931 199.101 238.739 198.99 238.46C198.878 238.175 198.686 237.796 198.45 237.387C197.972 236.568 197.544 235.911 197.619 235.855C197.687 235.805 198.233 236.376 198.729 237.226C198.977 237.648 199.145 238.069 199.207 238.398C199.275 238.727 199.219 238.938 199.182 238.931Z" fill="#EB996E"/>
<path d="M203.648 237.629C203.561 237.672 203.033 236.711 202.295 235.601C201.564 234.484 200.776 233.74 200.832 233.666C200.881 233.591 201.805 234.267 202.562 235.415C203.325 236.556 203.722 237.586 203.648 237.623V237.629Z" fill="#EB996E"/>
<path d="M207.952 233.759C207.859 233.784 207.555 232.624 206.817 231.371C206.085 230.112 205.223 229.281 205.285 229.212C205.328 229.144 206.333 229.895 207.09 231.21C207.859 232.518 208.026 233.753 207.946 233.765L207.952 233.759Z" fill="#EB996E"/>
<path d="M204.807 225.386C204.894 225.367 205.123 226.167 205.167 227.184C205.217 228.201 205.055 229.02 204.968 229.008C204.875 229.002 204.888 228.189 204.844 227.197C204.801 226.204 204.72 225.398 204.807 225.386Z" fill="#EB996E"/>
<path d="M189.184 219.344C189.184 219.344 190.859 213.979 191.466 213.303C192.068 212.634 197.681 211.157 197.681 211.157L199.418 215.654L198.171 216.969L195.485 216.795C195.485 216.795 193.811 221.224 189.178 219.344H189.184Z" fill="#AE7461"/>
<path d="M178.894 229.957C178.894 229.957 178.125 230.546 178.894 231.954C179.663 233.362 181.741 232.357 182.411 231.954C182.411 231.954 181.406 234.304 182.678 235.042C183.955 235.781 185.494 235.582 185.494 235.582C185.494 235.582 185.425 236.99 187.236 237.933C189.047 238.869 189.519 237.933 189.519 237.933C189.519 237.933 189.717 240.283 191.801 240.482C193.879 240.68 194.611 239.967 194.611 239.967L193.681 238.578C193.681 238.578 194.89 236.115 193.947 235.042C193.011 233.969 191.466 234.106 191.466 234.106C191.466 234.106 191.876 231.923 190.679 231.321C188.458 230.192 187.503 232.295 187.503 232.295C187.503 232.295 187.367 229.907 185.624 229.957C183.881 230.012 182.938 231.085 182.938 231.085L178.882 229.957H178.894Z" fill="#AE7461"/>
<path d="M187.509 232.289C187.59 232.326 187.261 233.145 186.709 234.075C186.163 235.012 185.605 235.694 185.531 235.644C185.456 235.595 185.884 234.838 186.43 233.914C186.976 232.99 187.429 232.245 187.509 232.289Z" fill="#6F4439"/>
<path d="M191.51 234.404C191.59 234.441 191.243 235.315 190.598 236.258C189.953 237.207 189.265 237.846 189.203 237.784C189.134 237.722 189.705 237.002 190.331 236.078C190.964 235.154 191.429 234.36 191.51 234.404Z" fill="#6F4439"/>
<path d="M149.948 259.727H139.77L137.165 296.737H147.368C149.104 291.099 153.446 261.725 153.446 261.725L149.948 259.727Z" fill="#263238"/>
<path d="M92.3039 259.728C92.3039 259.728 85.7915 275.004 86.4428 281.182C87.094 287.365 90.7534 296.737 90.7534 296.737H141.16C141.16 296.737 142.568 291.57 143.653 283.935C144.738 276.3 147.672 259.728 147.672 259.728H92.3039Z" fill="#263238"/>
<path d="M158.923 112.317C157.224 110.171 155.115 108.1 154.681 105.395C154.278 102.908 155.369 100.186 154.253 97.9217C152.882 95.1431 148.937 94.5972 147.225 92.0109C146.394 90.758 146.202 89.1702 145.383 87.9111C143.988 85.7651 141.129 85.0767 138.573 85.2193C136.018 85.3682 133.525 86.1621 130.969 86.2117C127.459 86.2861 123.905 84.9712 120.5 85.8086C116.741 86.7389 114.316 89.9021 111.748 92.9598L108.424 96.489C107.742 97.0844 107.028 97.6364 106.247 98.0829C104.882 98.8768 103.344 99.3916 102.153 100.427C99.6103 102.642 99.5917 107.138 102.128 109.365C99.3932 110.091 97.3216 112.813 97.3527 115.642C97.3651 117.198 97.9419 118.687 98.3326 120.194C98.7234 121.701 98.928 123.37 98.2334 124.765C97.5449 126.161 95.6718 127.048 94.3569 126.223C94.7353 128.257 96.0936 130.087 97.9295 131.048C97.1604 131.762 96.1184 132.171 95.0702 132.158C97.5883 138.956 105.137 142.833 112.375 143.217C119.613 143.602 126.677 141.183 133.525 138.801L153.267 134.658C154.997 134.348 155.809 132.301 155.865 130.54C155.921 128.784 155.568 126.936 156.268 125.324C157.236 123.116 159.909 122.043 160.914 119.853C162.055 117.36 160.635 114.457 158.929 112.305L158.923 112.317Z" fill="#263238"/>
<path d="M111.941 127.916C110.737 123.444 109.553 118.935 109.137 114.327C108.722 109.712 109.106 104.949 110.942 100.694C111.221 100.049 113.528 95.7445 114.223 95.8499C114.719 95.9244 113.224 99.9745 113.454 100.421C115.65 104.676 116.046 109.681 115.414 114.432C114.781 119.183 113.572 123.419 111.934 127.922" fill="#263238"/>
<path d="M112.394 110.239C112.617 98.6224 119.557 89.0709 131.162 89.6105L132.229 89.7221C142.99 90.8571 151.084 100.061 150.817 110.884C150.569 120.951 150.166 132.072 149.539 137.418C148.237 148.489 136.967 149.047 136.967 149.047C136.942 149.047 136.663 167.338 136.663 167.338L110.279 149.053L112.4 110.246L112.394 110.239Z" fill="#FFBE9D"/>
<path d="M136.967 149.047C136.967 149.047 129.933 148.719 122.98 143.261C122.98 143.261 125.579 152.632 136.743 152.8L136.96 149.054L136.967 149.047Z" fill="#EB996E"/>
<path d="M146.984 119.481C146.928 120.318 146.165 120.963 145.291 120.92C144.416 120.876 143.752 120.157 143.808 119.32C143.864 118.482 144.627 117.837 145.501 117.881C146.376 117.924 147.046 118.644 146.984 119.481Z" fill="#263238"/>
<path d="M147.97 115.239C147.753 115.425 146.649 114.407 144.943 114.234C143.244 114.035 141.904 114.78 141.737 114.55C141.656 114.451 141.898 114.097 142.481 113.756C143.058 113.421 144.013 113.13 145.074 113.248C146.134 113.365 146.984 113.849 147.455 114.302C147.939 114.761 148.076 115.152 147.97 115.232V115.239Z" fill="#263238"/>
<path d="M131.565 119.481C131.509 120.318 130.746 120.963 129.872 120.92C128.997 120.876 128.333 120.157 128.389 119.32C128.445 118.482 129.208 117.837 130.082 117.881C130.957 117.924 131.621 118.644 131.565 119.481Z" fill="#263238"/>
<path d="M131.211 114.172C130.994 114.358 129.884 113.34 128.185 113.167C126.485 112.968 125.145 113.713 124.978 113.483C124.897 113.384 125.133 113.03 125.722 112.689C126.299 112.348 127.254 112.063 128.315 112.181C129.375 112.298 130.225 112.782 130.697 113.235C131.174 113.694 131.317 114.085 131.211 114.165V114.172Z" fill="#263238"/>
<path d="M135.937 127.904C135.937 127.804 137.016 127.736 138.759 127.699C139.2 127.699 139.621 127.656 139.727 127.37C139.863 127.066 139.727 126.576 139.572 126.049C139.274 124.951 138.964 123.804 138.635 122.601C137.345 117.695 136.458 113.682 136.657 113.632C136.855 113.582 138.058 117.515 139.349 122.421C139.659 123.63 139.95 124.784 140.229 125.882C140.341 126.39 140.564 126.986 140.273 127.612C140.124 127.922 139.777 128.127 139.491 128.17C139.206 128.226 138.958 128.208 138.741 128.195C137.004 128.108 135.931 128.003 135.937 127.904Z" fill="#263238"/>
<path d="M130.802 128.555C131.081 128.567 130.889 130.415 132.334 131.898C133.773 133.38 135.77 133.38 135.757 133.641C135.77 133.759 135.28 133.951 134.449 133.889C133.63 133.833 132.464 133.442 131.583 132.537C130.703 131.631 130.399 130.515 130.417 129.746C130.43 128.964 130.684 128.53 130.808 128.555H130.802Z" fill="#263238"/>
<path d="M131.844 107.25C131.627 107.696 129.952 107.299 127.924 107.324C125.902 107.312 124.227 107.727 124.004 107.287C123.905 107.076 124.233 106.667 124.934 106.289C125.629 105.91 126.702 105.594 127.918 105.588C129.133 105.588 130.212 105.892 130.907 106.264C131.608 106.636 131.943 107.039 131.844 107.25Z" fill="#263238"/>
<path d="M147.864 109.501C147.523 109.855 146.394 109.334 144.987 109.166C143.585 108.949 142.351 109.154 142.121 108.72C142.022 108.509 142.251 108.143 142.81 107.833C143.362 107.523 144.255 107.312 145.222 107.448C146.19 107.579 146.99 108.019 147.443 108.472C147.902 108.924 148.02 109.34 147.871 109.514L147.864 109.501Z" fill="#263238"/>
<path d="M112.437 118.544C112.257 118.445 105.056 115.487 104.498 123.091C103.94 130.695 111.693 129.684 111.717 129.467C111.749 129.25 112.431 118.538 112.431 118.538L112.437 118.544Z" fill="#FFBE9D"/>
<path d="M109.609 126.421C109.578 126.396 109.472 126.502 109.236 126.589C109.013 126.675 108.629 126.713 108.244 126.539C107.463 126.186 106.88 124.858 106.942 123.488C106.973 122.793 107.165 122.148 107.45 121.621C107.723 121.081 108.114 120.721 108.523 120.678C108.932 120.616 109.199 120.876 109.28 121.1C109.367 121.317 109.305 121.466 109.348 121.484C109.367 121.503 109.522 121.366 109.484 121.05C109.466 120.895 109.385 120.709 109.218 120.554C109.044 120.393 108.784 120.3 108.498 120.306C107.909 120.306 107.338 120.802 107.028 121.385C106.681 121.962 106.452 122.694 106.414 123.469C106.352 125.007 107.028 126.496 108.108 126.893C108.635 127.072 109.088 126.942 109.336 126.781C109.584 126.607 109.64 126.446 109.615 126.427L109.609 126.421Z" fill="#EB996E"/>
<path d="M146.711 97.9649C147.989 97.3633 144.546 93.1395 141.607 91.5703C137.166 89.201 130.262 87.4706 125.97 88.4009C120.798 89.5111 116.419 91.7688 113.572 96.2282C110.725 100.688 109.423 106.009 109.23 111.294C109.175 112.906 109.23 114.593 110.006 116.014C110.961 117.763 112.933 118.954 112.691 121.267C112.604 122.111 112.791 122.985 113.33 123.642C114.626 125.212 116.419 123.934 117.293 122.588C119.16 119.716 119.576 116.169 119.942 112.764C120.202 110.345 120.463 107.87 119.929 105.495C119.638 104.204 119.117 102.964 118.9 101.661C118.683 100.359 118.813 98.8952 119.681 97.8967C119.824 97.7354 120.053 97.5307 120.339 97.3137C122.615 95.5646 125.667 95.1925 128.309 96.3213C132.495 98.1137 139.665 100.849 141.675 99.5155C144.559 97.599 145.303 96.2779 145.303 96.2779L146.711 97.9711V97.9649Z" fill="#263238"/>
<path d="M126.436 87.3961C130.709 86.2673 135.46 86.6457 139.244 88.9281C141.253 90.1376 143.015 91.9797 143.504 94.2745C143.994 96.5694 142.853 99.2798 140.627 100.024L140.472 100.111C137.153 100.998 135.076 100.421 131.906 99.0937C129.245 97.9773 126.932 96.1414 124.259 95.0312C121.424 93.859 118.23 93.555 115.222 94.1877C118.348 91.0617 122.156 88.525 126.423 87.3961H126.436Z" fill="#263238"/>
<path d="M128.364 86.0751C128.364 86.0751 128.643 86.0751 129.14 86.1495C129.63 86.2426 130.343 86.3976 131.186 86.7077C132.03 87.0179 133.004 87.483 133.99 88.1529C134.976 88.8165 135.981 89.6973 136.781 90.8261C137.587 91.9611 138.034 93.2264 138.319 94.3738C138.598 95.5274 138.722 96.5942 138.784 97.4874C138.846 98.3805 138.852 99.1062 138.84 99.6024C138.828 100.099 138.803 100.378 138.784 100.378C138.759 100.378 138.741 100.105 138.716 99.6024C138.685 99.1062 138.648 98.3867 138.561 97.506C138.468 96.6253 138.325 95.5771 138.034 94.4482C137.736 93.3256 137.296 92.0976 136.52 91.0122C135.751 89.9205 134.778 89.0646 133.822 88.3948C132.867 87.7311 131.924 87.2473 131.106 86.9186C129.462 86.2612 128.352 86.1309 128.364 86.0689V86.0751Z" fill="#455A64"/>
<path d="M135.367 85.6535C135.367 85.6535 135.609 85.6969 136.024 85.8333C136.229 85.914 136.496 85.9698 136.775 86.1125C137.066 86.2613 137.383 86.4226 137.724 86.5962C139.076 87.3901 140.75 88.9779 141.668 91.2356C141.916 91.7876 142.072 92.3582 142.227 92.9102C142.332 93.4684 142.45 94.008 142.475 94.5352C142.543 95.0562 142.506 95.5524 142.506 96.0176C142.45 96.4765 142.431 96.9169 142.332 97.3014C142.239 97.686 142.177 98.0395 142.053 98.331C141.941 98.6225 141.867 98.883 141.749 99.0753C141.538 99.466 141.414 99.6707 141.395 99.6583C141.327 99.6273 141.854 98.79 142.109 97.258C142.189 96.8797 142.196 96.4517 142.239 96.0051C142.227 95.5524 142.258 95.0686 142.183 94.56C142.152 94.0514 142.028 93.5304 141.923 92.9846C141.761 92.4512 141.619 91.8992 141.371 91.3596C140.478 89.1702 138.896 87.6134 137.606 86.7885C137.277 86.6024 136.973 86.435 136.7 86.2737C136.434 86.1125 136.179 86.0442 135.981 85.945C135.584 85.7713 135.361 85.6659 135.367 85.6473V85.6535Z" fill="#455A64"/>
<path d="M140.322 165.502C140.322 166.544 145.551 189.524 147.554 195.168C149.558 200.812 155.896 257.408 155.059 261.433C154.228 265.465 152.057 265.304 152.057 265.304C152.057 265.304 100.838 262.078 95.3307 262.562C89.823 263.046 87.4909 262.885 86.1574 256.596C84.8239 250.306 86.1946 217.626 85.0286 209.725C83.8626 201.823 83.8502 197.996 83.3974 186.255C83.0066 176.083 85.3201 167.921 90.1579 162.035C94.9957 156.149 105.707 150.189 105.707 150.189L109.509 144.65L136.39 158.866L137.004 155.628L138.635 160.664L140.316 165.496L140.322 165.502Z" fill="#E0982C"/>
<g opacity="0.3">
<path d="M151.884 235.526C151.437 234.385 149.986 234.1 148.764 233.963C137.37 232.698 125.518 229.857 117.194 221.974C113.938 218.892 111.37 215.164 108.902 211.424C103.493 203.249 98.4135 194.864 93.3338 186.484L89.3892 187.979C91.8081 199.813 94.1898 208.379 98.1282 218.079C102.073 227.792 105.131 237.188 115.116 240.37C121.573 242.423 133.835 240.848 140.589 240.321C143.411 240.097 146.246 239.824 148.956 239.012C149.775 238.764 150.606 238.454 151.22 237.858C151.834 237.263 152.194 236.326 151.878 235.532L151.884 235.526Z" fill="black"/>
</g>
<path d="M87.9931 184.884C88.2909 185.412 111.084 234.094 121.262 236.097C131.44 238.1 163.072 238.566 169.244 237.399C175.415 236.233 181.456 235.142 181.456 235.142C181.456 235.142 185.928 224.523 181.847 215.481L173.349 215.747C173.349 215.747 149.725 214.476 146.388 213.558C143.051 212.64 140.167 209.514 137.165 209.681L119.197 167.859C119.197 167.859 107.518 157.011 99.1759 160.354C90.8338 163.691 85.5556 180.53 87.9993 184.878L87.9931 184.884Z" fill="#E0982C"/>
<path d="M174.001 236.829C174.001 236.829 174.039 236.531 174.169 236.01C174.305 235.489 174.473 234.732 174.646 233.796C174.826 232.859 174.981 231.73 175.099 230.471C175.198 229.212 175.242 227.823 175.186 226.365C175.062 223.45 174.541 220.845 174.032 219.003C173.778 218.079 173.549 217.341 173.369 216.839C173.195 216.33 173.114 216.045 173.133 216.039C173.152 216.032 173.276 216.299 173.487 216.795C173.704 217.291 173.964 218.023 174.249 218.941C174.82 220.777 175.384 223.407 175.508 226.353C175.564 227.823 175.508 229.225 175.397 230.496C175.267 231.761 175.087 232.896 174.876 233.839C174.671 234.782 174.466 235.532 174.293 236.041C174.125 236.556 174.026 236.835 174.001 236.823V236.829Z" fill="#263238"/>
<path d="M119.197 167.865C119.197 167.865 119.321 168.113 119.539 168.609C119.756 169.112 120.078 169.837 120.5 170.793C121.337 172.722 122.565 175.544 124.134 179.166C127.273 186.429 131.782 196.873 137.29 209.638L137.166 209.563C138.586 209.495 139.919 210.115 141.147 210.785C142.388 211.467 143.585 212.261 144.906 212.863C146.209 213.527 147.685 213.675 149.179 213.855C150.674 214.035 152.206 214.165 153.751 214.296C159.953 214.81 166.521 215.214 173.356 215.592H173.344C176.017 215.505 178.907 215.412 181.841 215.319H181.946L181.99 215.412C183.298 218.414 183.85 221.788 183.689 225.162C183.546 228.542 182.852 231.948 181.605 235.204L181.574 235.284L181.487 235.303C179.775 235.619 177.933 235.96 176.085 236.302C174.1 236.667 172.128 237.033 170.174 237.393C168.214 237.778 166.211 237.92 164.257 238.001C160.325 238.181 156.455 238.193 152.647 238.175C148.838 238.156 145.104 238.063 141.445 237.933C137.786 237.802 134.207 237.616 130.721 237.35C128.978 237.226 127.254 237.058 125.561 236.872C123.868 236.649 122.199 236.5 120.568 236.041C119.768 235.743 119.061 235.284 118.404 234.794C117.746 234.298 117.138 233.746 116.568 233.182C115.414 232.047 114.384 230.843 113.411 229.622C109.559 224.722 106.538 219.76 103.834 215.22C98.4941 206.09 94.6362 198.443 91.9878 193.158C90.673 190.51 89.6744 188.444 89.0045 187.037C88.3347 185.629 87.9998 184.884 87.9998 184.884C87.9998 184.884 88.099 185.064 88.2789 185.418C88.4587 185.784 88.7192 186.311 89.0604 187.006C89.755 188.407 90.7784 190.454 92.0995 193.096C94.7789 198.362 98.6677 205.991 104.033 215.096C106.743 219.623 109.776 224.579 113.622 229.448C114.589 230.657 115.619 231.854 116.76 232.977C117.331 233.535 117.926 234.081 118.571 234.565C119.216 235.049 119.904 235.489 120.661 235.768C122.212 236.196 123.917 236.357 125.592 236.574C127.285 236.754 128.997 236.922 130.74 237.046C134.219 237.306 137.798 237.492 141.451 237.616C145.104 237.747 148.838 237.833 152.64 237.852C156.442 237.871 160.313 237.852 164.232 237.672C166.199 237.592 168.159 237.449 170.106 237.064C172.066 236.705 174.038 236.339 176.023 235.973C177.871 235.632 179.713 235.291 181.425 234.974L181.307 235.067C182.535 231.867 183.23 228.48 183.373 225.144C183.528 221.807 182.988 218.482 181.704 215.536L181.853 215.629C178.92 215.722 176.029 215.809 173.356 215.896H173.35H173.344C166.502 215.511 159.934 215.096 153.726 214.575C152.175 214.438 150.649 214.302 149.142 214.122C148.392 214.035 147.647 213.942 146.909 213.8C146.159 213.688 145.458 213.396 144.788 213.099C143.442 212.485 142.245 211.685 141.017 211.002C139.802 210.332 138.505 209.743 137.172 209.805H137.085L137.048 209.731C131.583 196.948 127.105 186.491 123.998 179.215C122.454 175.581 121.25 172.753 120.425 170.817C120.022 169.856 119.712 169.124 119.501 168.616C119.297 168.119 119.197 167.859 119.197 167.859V167.865Z" fill="#263238"/>
<path d="M116.816 164.584C116.816 164.584 116.5 164.293 115.929 163.766C115.365 163.238 114.496 162.525 113.324 161.799C112.152 161.074 110.657 160.367 108.895 159.883C107.14 159.399 105.124 159.176 103.034 159.368C100.944 159.591 99.0152 160.212 97.3902 161.03C95.7652 161.849 94.4317 162.841 93.4331 163.784C92.4283 164.727 91.7151 165.601 91.2685 166.228C90.8157 166.854 90.5863 167.22 90.5614 167.208C90.549 167.208 90.5987 167.109 90.6979 166.929C90.8033 166.755 90.9398 166.482 91.1631 166.16C91.5848 165.502 92.2733 164.603 93.2781 163.623C94.2766 162.643 95.6101 161.619 97.2599 160.77C98.9036 159.92 100.876 159.275 103.009 159.052C105.143 158.853 107.202 159.089 108.982 159.598C110.769 160.106 112.282 160.844 113.448 161.607C114.62 162.37 115.476 163.114 116.022 163.679C116.307 163.945 116.493 164.187 116.63 164.342C116.766 164.497 116.828 164.584 116.822 164.59L116.816 164.584Z" fill="#263238"/>
<path d="M137.097 209.725C137.178 209.756 136.663 211.337 135.95 213.254C135.23 215.176 134.579 216.702 134.498 216.671C134.418 216.64 134.932 215.059 135.646 213.142C136.365 211.225 137.016 209.694 137.097 209.725Z" fill="#263238"/>
<path d="M178.392 217.744C178.392 217.744 178.479 217.701 178.628 217.757C178.771 217.806 178.963 217.955 179.087 218.203C179.205 218.439 179.286 218.823 179.062 219.171C178.851 219.487 178.448 219.735 177.983 219.667C177.505 219.58 177.233 219.165 177.171 218.799C177.108 218.414 177.264 218.067 177.481 217.881C177.704 217.688 177.946 217.67 178.088 217.682C178.237 217.695 178.312 217.738 178.306 217.757C178.318 217.819 177.946 217.732 177.636 218.048C177.493 218.203 177.394 218.47 177.462 218.743C177.518 219.016 177.741 219.301 178.039 219.351C178.337 219.4 178.659 219.227 178.814 219.003C178.975 218.786 178.951 218.501 178.876 218.296C178.715 217.85 178.38 217.788 178.392 217.75V217.744Z" fill="#263238"/>
<path d="M137.042 160.484C137.042 160.484 136.825 160.385 136.428 160.168C136.006 159.926 135.442 159.604 134.735 159.201L134.853 159.151C134.518 160.844 134.195 163.344 133.625 166.333L133.587 166.532L133.414 166.42C130.92 164.845 127.925 163.052 124.73 161.117C122.349 159.691 120.122 158.252 118.069 157.005C116.01 155.771 114.124 154.704 112.537 153.817C110.974 152.949 109.696 152.235 108.772 151.721C108.35 151.485 108.015 151.293 107.748 151.144C107.519 151.007 107.395 150.933 107.401 150.927C107.401 150.914 107.538 150.97 107.779 151.088C108.052 151.224 108.4 151.392 108.828 151.609C109.733 152.068 111.042 152.75 112.642 153.612C114.242 154.474 116.14 155.523 118.218 156.751C120.271 158.01 122.529 159.387 124.892 160.838C128.086 162.767 131.075 164.584 133.556 166.178L133.345 166.265C133.941 163.3 134.307 160.801 134.691 159.108L134.716 158.996L134.809 159.052C135.498 159.486 136.056 159.827 136.465 160.088C136.844 160.329 137.042 160.466 137.036 160.478L137.042 160.484Z" fill="#263238"/>
<g opacity="0.3">
<path d="M111.178 152.936C115.854 156.422 120.531 159.908 125.207 163.387C128.296 165.688 131.453 168.026 135.119 169.205C135.05 165.955 134.982 162.705 134.914 159.455L133.481 166.296L111.178 152.936Z" fill="black"/>
</g>
<path d="M255.648 104.099C253.204 104.428 250.661 102.679 250.09 100.279C249.52 97.8847 251.002 95.1743 253.334 94.3618C251.784 92.8298 251.349 90.2807 252.317 88.327C253.278 86.3732 255.567 85.1576 257.725 85.4553C257.775 83.3031 259.016 81.2191 260.889 80.1523C262.762 79.0855 265.187 79.0855 267.066 80.1461C269.404 78.0621 273.237 77.9133 275.731 79.805C277.815 79.377 280.116 80.45 281.133 82.3107C282.15 84.1776 281.803 86.6896 280.314 88.2091" fill="#263238"/>
<path d="M254.927 104.819C255.597 93.723 264.677 84.9964 275.791 84.7731L276.895 84.7483C288.823 85.2011 295.099 95.5837 294.312 107.492L295.019 149.978L266.041 160.379L265.787 145.078C265.787 145.078 254.3 143.534 253.928 132.084C253.748 126.558 254.3 115.146 254.921 104.819H254.927Z" fill="#AE7461"/>
<path d="M265.7 145.06C265.7 145.06 273.019 145.351 280.611 140.364C280.611 140.364 277.249 148.676 265.806 147.875L265.7 145.06Z" fill="#6F4439"/>
<path d="M258.146 115.171C258.134 116.033 258.853 116.758 259.759 116.789C260.658 116.82 261.403 116.144 261.415 115.282C261.427 114.42 260.708 113.695 259.809 113.664C258.909 113.632 258.165 114.309 258.153 115.171H258.146Z" fill="#263238"/>
<path d="M257.501 110.37C257.706 110.581 258.928 109.638 260.689 109.607C262.444 109.551 263.753 110.432 263.939 110.209C264.032 110.11 263.815 109.731 263.244 109.334C262.68 108.937 261.731 108.559 260.633 108.59C259.535 108.621 258.624 109.043 258.103 109.465C257.569 109.892 257.396 110.277 257.495 110.376L257.501 110.37Z" fill="#263238"/>
<path d="M274.173 115.171C274.16 116.033 274.88 116.758 275.785 116.789C276.685 116.82 277.429 116.144 277.441 115.282C277.454 114.42 276.734 113.695 275.835 113.664C274.936 113.632 274.191 114.309 274.179 115.171H274.173Z" fill="#263238"/>
<path d="M274.806 110.345C275.01 110.556 276.232 109.613 277.994 109.582C279.749 109.526 281.058 110.407 281.244 110.184C281.337 110.085 281.126 109.706 280.549 109.309C279.985 108.912 279.036 108.534 277.938 108.565C276.84 108.596 275.928 109.018 275.407 109.44C274.874 109.868 274.7 110.252 274.8 110.351L274.806 110.345Z" fill="#263238"/>
<path d="M268.684 123.525C268.69 123.426 267.593 123.258 265.819 123.066C265.366 123.029 264.944 122.948 264.857 122.644C264.746 122.322 264.926 121.832 265.13 121.305C265.533 120.207 265.949 119.059 266.389 117.856C268.138 112.95 269.391 108.919 269.193 108.85C268.994 108.782 267.419 112.702 265.676 117.614C265.254 118.824 264.857 119.977 264.473 121.081C264.312 121.596 264.032 122.179 264.274 122.849C264.405 123.184 264.74 123.42 265.025 123.488C265.316 123.568 265.564 123.568 265.788 123.581C267.574 123.643 268.678 123.624 268.684 123.525Z" fill="#263238"/>
<path d="M274.148 104.372C274.39 104.813 275.885 104.298 277.739 104.199C279.594 104.056 281.163 104.379 281.324 103.907C281.392 103.684 281.058 103.293 280.381 102.946C279.712 102.605 278.694 102.344 277.584 102.419C276.474 102.493 275.513 102.871 274.911 103.299C274.303 103.727 274.036 104.155 274.148 104.366V104.372Z" fill="#263238"/>
<path d="M257.167 104.149C257.546 104.54 258.991 104.1 260.734 104.044C262.477 103.938 263.965 104.248 264.294 103.82C264.437 103.616 264.201 103.219 263.543 102.853C262.898 102.487 261.825 102.202 260.628 102.257C259.431 102.313 258.395 102.698 257.8 103.12C257.192 103.541 257 103.957 257.167 104.149Z" fill="#263238"/>
<path d="M255.925 99.5469C255.925 99.5469 258.797 92.315 262.221 90.5721C266.364 88.4633 268.262 93.0158 272.225 91.825C276.188 90.6279 280.145 88.606 284.282 91.6017C288.81 94.8827 286.77 97.2954 287.148 102.369C288.686 122.942 292.562 128.685 293.437 118.966C293.53 117.9 296.464 116.994 296.811 112.497C297.258 106.661 297.338 99.5903 295.955 95.4844C294.789 92.0235 292.755 89.6604 289.139 87.0802C283.433 83.0053 275.711 83.0735 270.476 83.7062C265.241 84.3388 255.256 90.5783 255.919 99.5469H255.925Z" fill="#263238"/>
<path d="M292.705 118.669C292.742 116.901 294.237 115.474 295.998 115.605C298.138 115.766 300.538 116.926 300.489 121.342C300.396 129.175 292.556 127.47 292.543 127.24C292.537 127.085 292.637 121.943 292.705 118.662V118.669Z" fill="#AE7461"/>
<path d="M294.281 124.319C294.318 124.294 294.418 124.418 294.647 124.524C294.87 124.629 295.255 124.704 295.664 124.555C296.495 124.263 297.209 122.955 297.258 121.547C297.289 120.833 297.147 120.151 296.898 119.587C296.669 119.01 296.303 118.607 295.887 118.526C295.472 118.427 295.174 118.669 295.075 118.892C294.97 119.109 295.013 119.264 294.976 119.283C294.951 119.301 294.808 119.146 294.877 118.824C294.914 118.669 295.007 118.483 295.193 118.334C295.385 118.185 295.658 118.111 295.95 118.142C296.551 118.191 297.091 118.749 297.357 119.37C297.661 119.99 297.835 120.759 297.804 121.559C297.736 123.134 296.911 124.604 295.776 124.921C295.224 125.057 294.765 124.883 294.529 124.697C294.287 124.499 294.25 124.325 294.275 124.313L294.281 124.319Z" fill="#6F4439"/>
<path d="M292.241 103.51C291.236 104.224 290.182 104.962 288.96 105.11C287.738 105.259 286.324 104.583 286.094 103.374C285.989 102.828 286.113 102.195 285.747 101.78C285.307 101.284 284.525 101.457 283.868 101.544C281.598 101.829 279.235 100.273 278.608 98.0708C278.044 98.9516 276.692 98.9392 275.799 98.3933C274.912 97.8475 274.322 96.9296 273.622 96.1543C272.921 95.379 271.941 94.6968 270.905 94.8642C270.328 94.9573 269.795 95.3108 269.212 95.2736C268.182 95.2054 267.655 94.0083 267.481 92.9911C267.308 91.974 267.159 90.7893 266.278 90.2497C265.459 89.7535 264.424 90.0698 263.481 90.2311C262.538 90.3924 261.31 90.1939 261.049 89.2697C260.913 88.786 261.112 88.2712 261.372 87.8432C262.55 85.9019 265.193 84.9963 267.314 85.8026C268.027 83.2039 270.403 81.1385 273.082 80.8036C275.761 80.4687 278.571 81.8704 279.911 84.2149C281.536 82.6829 283.924 82.0006 286.113 82.4534C288.302 82.9062 290.225 84.4753 291.106 86.5283C292.998 85.9887 295.187 86.6834 296.421 88.2091C297.662 89.7411 297.879 92.0236 296.955 93.7602C298.375 94.5355 299.609 95.9062 299.671 97.5312C299.733 99.15 298.189 100.8 296.614 100.403C297.271 101.65 296.793 103.374 295.584 104.106C294.375 104.838 292.632 104.459 291.832 103.293" fill="#263238"/>
<path d="M266.774 88.1161C266.774 88.1161 266.774 88.1657 266.774 88.2588C266.786 88.3518 266.793 88.4944 266.83 88.6743C266.91 89.034 267.065 89.5674 267.431 90.1691C267.797 90.7645 268.362 91.4467 269.205 91.9863C270.036 92.526 271.165 92.9291 272.43 92.8361L272.294 92.6624C272.064 93.3385 272.145 94.1386 272.492 94.8208C272.821 95.5155 273.33 96.1233 273.869 96.7187C274.142 97.004 274.384 97.339 274.763 97.5994C275.128 97.8475 275.569 97.9902 276.009 98.0336C276.896 98.1266 277.882 97.8351 278.509 97.0785L278.217 96.9978C278.447 98.5484 279.365 100.087 280.791 101.011C281.548 101.532 282.472 101.842 283.378 101.798C284.283 101.774 285.12 101.488 285.902 101.191L285.691 101.104C286.131 102.065 286.795 102.884 287.595 103.479C288.377 104.075 289.412 104.416 290.337 104.168C292.179 103.74 293.369 102.177 293.587 100.725L293.413 100.812C294.337 101.296 295.323 101.321 296.111 101.153C296.911 100.992 297.531 100.632 297.972 100.279C298.412 99.9191 298.672 99.5532 298.827 99.3051C298.97 99.0446 299.026 98.9019 299.02 98.8957C298.983 98.8647 298.772 99.4974 297.891 100.173C297.451 100.496 296.843 100.831 296.08 100.967C295.323 101.11 294.393 101.067 293.531 100.601L293.382 100.521L293.357 100.688C293.134 102.04 291.986 103.498 290.281 103.876C289.443 104.093 288.532 103.789 287.794 103.225C287.049 102.661 286.417 101.873 286.007 100.967L285.945 100.825L285.796 100.88C285.027 101.172 284.221 101.439 283.384 101.457C282.546 101.495 281.715 101.215 280.996 100.719C279.65 99.8509 278.788 98.4057 278.565 96.942L278.509 96.5699L278.273 96.8614C277.746 97.5064 276.859 97.7855 276.065 97.7049C275.668 97.6677 275.277 97.5436 274.955 97.3265C274.645 97.1219 274.39 96.7869 274.111 96.5016C273.572 95.9186 273.075 95.3294 272.765 94.6844C272.437 94.0455 272.362 93.3447 272.554 92.7306L272.617 92.5446L272.418 92.5632C271.227 92.6686 270.136 92.3027 269.329 91.8003C268.504 91.2979 267.94 90.6529 267.568 90.0822C266.83 88.9162 266.836 88.0851 266.78 88.1037L266.774 88.1161Z" fill="#455A64"/>
<path d="M274.751 124.127C274.472 124.158 274.794 126.006 273.448 127.594C272.103 129.188 270.099 129.324 270.13 129.585C270.13 129.703 270.633 129.864 271.464 129.74C272.282 129.622 273.424 129.151 274.249 128.177C275.067 127.203 275.297 126.056 275.222 125.293C275.154 124.511 274.869 124.089 274.745 124.12L274.751 124.127Z" fill="#263238"/>
<path d="M210.792 213.198C211.785 212.801 244.564 208.863 244.564 208.863L257.862 197.605L256.615 230.199L214.762 234.236L210.792 213.198Z" fill="#38A7CA"/>
<path opacity="0.3" d="M251.982 202.58C251.585 202.778 248.298 205.699 248.298 205.699L249.302 230.8L251.982 202.58Z" fill="black"/>
<path d="M307.828 261.613H252.46C252.46 261.613 255.394 277.237 256.479 284.432C257.564 291.632 259.152 296.737 259.152 296.737H309.298C309.298 296.737 313.044 287.663 313.695 281.833C314.347 276.003 307.834 261.607 307.834 261.607L307.828 261.613Z" fill="#263238"/>
<path d="M248.342 263.499C248.342 263.499 246.798 281.306 248.342 296.743H267.52V282.521L248.342 263.499Z" fill="#263238"/>
<path d="M258.991 176.207L264.958 163.139L265.696 155.07C265.696 155.07 277.139 147.881 282.566 145.165C287.993 142.448 295.306 139.992 295.306 139.992V147.608L258.991 176.207Z" fill="#EBEBEB"/>
<path d="M308.864 242.938C308.864 242.938 312.101 199.385 312.325 196.148C312.325 196.148 314.241 172.877 310.104 164.02C305.973 155.157 296.726 147.373 296.726 147.373L295.876 142.721L277.815 154.102L269.467 161.365C269.467 161.365 264.728 166.371 261.59 171.165C259.22 174.446 256.584 178.664 255.412 183.966C254.984 185.908 250.016 209.092 249.867 225.249C249.867 225.249 249.104 239.347 248.292 247.336C247.287 257.222 245.749 279.749 246.084 293.102L304.603 291.316C319.067 289.108 316.524 287.675 316.524 287.675L308.864 242.951V242.938Z" fill="#38A7CA"/>
<path d="M295.312 147.609C295.312 147.609 295.175 147.677 294.908 147.795C294.623 147.913 294.226 148.08 293.711 148.291C293.203 148.539 292.583 148.862 291.851 149.24C291.15 149.674 290.319 150.121 289.457 150.735C285.946 153.091 281.313 157.086 276.599 162.618L276.568 162.655H276.519C274.738 162.99 272.853 163.338 270.905 163.697L271.029 163.555C270.943 166.166 270.85 168.901 270.75 171.736V171.798L270.701 171.841C267.891 174.502 265.032 177.516 262.445 180.89C261.397 182.273 260.43 183.694 259.617 185.17L259.313 185.722L259.078 186.299C258.916 186.677 258.767 187.062 258.656 187.465C258.408 188.259 258.16 189.046 257.955 189.84C257.087 193.003 256.373 196.092 255.704 199.032C254.37 204.918 253.26 210.24 252.342 214.705C250.506 223.649 249.47 229.194 249.47 229.194C249.47 229.194 249.483 228.84 249.594 228.177C249.693 227.513 249.867 226.533 250.09 225.28C250.543 222.768 251.225 219.14 252.119 214.662C253.012 210.184 254.097 204.856 255.412 198.964C256.076 196.018 256.783 192.929 257.651 189.753C257.856 188.959 258.104 188.166 258.352 187.365C258.464 186.962 258.619 186.565 258.786 186.168L259.028 185.573L259.338 185.015C260.163 183.52 261.137 182.087 262.191 180.698C264.796 177.305 267.662 174.285 270.49 171.612L270.44 171.723C270.539 168.889 270.639 166.154 270.732 163.542V163.425L270.856 163.406C272.81 163.052 274.689 162.711 276.475 162.395L276.394 162.445C281.152 156.9 285.822 152.93 289.376 150.604C290.25 149.997 291.094 149.556 291.801 149.134C292.539 148.768 293.166 148.452 293.687 148.216C294.208 148.018 294.611 147.863 294.902 147.751C295.175 147.652 295.324 147.609 295.324 147.609H295.312Z" fill="#263238"/>
<path d="M275.663 182.025L276.364 240.141L267.513 296.743H290.84C290.84 296.743 301.44 253.767 303.915 244.737C306.315 235.967 309.906 191.825 310.222 189.66C310.346 188.81 312.877 173.565 305.428 166.377" fill="#38A7CA"/>
<path d="M305.434 166.37C305.434 166.37 305.601 166.532 305.924 166.854C306.24 167.183 306.686 167.692 307.195 168.423C308.218 169.875 309.415 172.269 310.11 175.587C310.811 178.893 311.053 183.073 310.551 187.849C310.203 190.231 310.023 192.774 309.769 195.484C309.521 198.195 309.26 201.054 308.988 204.062C308.429 210.078 307.803 216.665 307.046 223.736C306.655 227.271 306.252 230.924 305.756 234.683C305.248 238.435 304.751 242.324 303.703 246.201C299.808 261.725 295.516 278.806 291.007 296.774L290.976 296.898H290.852C290.058 296.898 289.196 296.898 288.334 296.898C281.257 296.898 274.298 296.898 267.519 296.898H267.333L267.364 296.712C270.639 275.835 273.659 256.571 276.239 240.116V240.141C276.047 222.545 275.892 208.019 275.787 197.884C275.743 192.823 275.706 188.86 275.681 186.156C275.675 184.81 275.669 183.78 275.662 183.08C275.662 182.385 275.669 182.025 275.669 182.025C275.669 182.025 275.687 182.385 275.7 183.08C275.712 183.78 275.731 184.81 275.756 186.156C275.799 188.86 275.855 192.823 275.935 197.884C276.072 208.019 276.264 222.545 276.5 240.141V240.153V240.166C273.938 256.62 270.93 275.891 267.68 296.768L267.525 296.582C274.304 296.582 281.257 296.582 288.34 296.582H290.858L290.703 296.706C295.225 278.744 299.523 261.657 303.43 246.132C304.478 242.274 304.975 238.404 305.489 234.652C305.992 230.899 306.401 227.246 306.798 223.711C307.567 216.646 308.212 210.053 308.783 204.043C309.062 201.035 309.329 198.176 309.583 195.466C309.85 192.768 310.036 190.187 310.389 187.824C310.904 183.067 310.681 178.905 310.005 175.606C309.335 172.3 308.156 169.912 307.158 168.454C306.655 167.723 306.221 167.208 305.911 166.873C305.601 166.544 305.446 166.364 305.446 166.364L305.434 166.37Z" fill="#263238"/>
<path d="M288.005 245.86C287.993 245.897 287.298 245.711 286.2 245.339C285.102 244.966 283.608 244.396 281.989 243.676C280.37 242.957 278.944 242.231 277.933 241.667C276.922 241.102 276.314 240.718 276.339 240.681C276.363 240.637 277.002 240.954 278.038 241.462C279.074 241.971 280.513 242.665 282.119 243.379C283.732 244.092 285.208 244.694 286.281 245.121C287.354 245.549 288.018 245.816 288.005 245.86Z" fill="#263238"/>
<path d="M248.062 249.711C248.062 249.711 248.056 249.662 248.062 249.556C248.062 249.438 248.074 249.289 248.08 249.11C248.105 248.694 248.136 248.123 248.173 247.398C248.273 245.884 248.403 243.745 248.57 241.115C248.93 235.812 249.439 228.487 250.152 220.405C250.865 212.324 251.69 205.023 252.366 199.751C252.701 197.115 252.993 194.982 253.21 193.512C253.315 192.799 253.402 192.234 253.464 191.819C253.495 191.639 253.52 191.496 253.538 191.378C253.557 191.279 253.57 191.229 253.576 191.229C253.582 191.229 253.576 191.279 253.576 191.385C253.563 191.502 253.551 191.651 253.532 191.825C253.483 192.24 253.421 192.805 253.34 193.524C253.16 195.025 252.912 197.159 252.602 199.776C251.988 205.054 251.2 212.355 250.481 220.436C249.767 228.512 249.222 235.837 248.8 241.133C248.589 243.763 248.422 245.897 248.298 247.41C248.236 248.13 248.18 248.7 248.142 249.116C248.124 249.296 248.105 249.438 248.093 249.556C248.08 249.655 248.074 249.705 248.068 249.705L248.062 249.711Z" fill="#263238"/>
<path d="M295.311 159.039C295.212 159.077 294.641 156.807 293.115 154.412C291.614 152 289.822 150.505 289.896 150.424C289.921 150.393 290.399 150.728 291.081 151.38C291.763 152.031 292.625 153.017 293.394 154.239C294.157 155.461 294.678 156.664 294.97 157.557C295.261 158.45 295.354 159.027 295.317 159.039H295.311Z" fill="#263238"/>
<path d="M254.147 231.24C254.147 231.24 254.221 231.383 254.203 231.662C254.184 231.935 254.06 232.351 253.694 232.717C253.353 233.083 252.671 233.343 252.013 233.101C251.691 232.989 251.381 232.779 251.151 232.481C250.915 232.183 250.791 231.78 250.804 231.389C250.81 230.887 250.965 230.409 251.25 230.037C251.393 229.851 251.579 229.696 251.796 229.609C252.019 229.529 252.181 229.485 252.367 229.429H252.392L252.41 229.423C252.832 229.436 253.241 229.522 253.533 229.746C253.831 229.957 253.979 230.254 254.054 230.484C254.196 230.961 254.172 231.24 254.147 231.24C254.11 231.247 254.072 230.968 253.899 230.54C253.806 230.335 253.657 230.093 253.403 229.932C253.148 229.764 252.795 229.696 252.41 229.702H252.454C252.286 229.758 252.069 229.82 251.92 229.882C251.765 229.957 251.616 230.074 251.505 230.229C251.269 230.54 251.139 230.961 251.133 231.389C251.102 232.072 251.585 232.624 252.125 232.816C252.671 233.033 253.223 232.847 253.551 232.549C253.893 232.251 254.035 231.892 254.091 231.644C254.147 231.395 254.134 231.24 254.159 231.24H254.147Z" fill="#263238"/>
<path d="M253.278 251.789C253.278 251.789 253.353 251.931 253.334 252.211C253.315 252.483 253.191 252.899 252.825 253.265C252.484 253.631 251.802 253.891 251.145 253.65C250.822 253.538 250.512 253.327 250.283 253.029C250.047 252.732 249.923 252.328 249.935 251.938C249.941 251.435 250.096 250.958 250.382 250.586C250.524 250.4 250.71 250.244 250.928 250.158C251.151 250.077 251.312 250.034 251.498 249.978H251.523L251.542 249.972C251.963 249.984 252.373 250.071 252.664 250.294C252.962 250.505 253.111 250.803 253.185 251.032C253.328 251.51 253.303 251.789 253.278 251.789C253.241 251.795 253.204 251.516 253.03 251.094C252.937 250.889 252.788 250.648 252.534 250.486C252.28 250.319 251.926 250.251 251.542 250.257H251.585C251.418 250.313 251.2 250.375 251.052 250.437C250.897 250.511 250.748 250.629 250.636 250.784C250.4 251.094 250.27 251.516 250.264 251.944C250.233 252.626 250.717 253.178 251.256 253.37C251.802 253.587 252.354 253.401 252.683 253.104C253.024 252.806 253.167 252.446 253.222 252.198C253.278 251.95 253.266 251.795 253.291 251.795L253.278 251.789Z" fill="#263238"/>
<path d="M302.809 162.928C302.778 162.984 302.009 162.488 300.645 161.967C299.969 161.7 299.131 161.458 298.189 161.266C297.246 161.092 296.192 160.981 295.081 160.987C293.971 161.012 292.923 161.154 291.98 161.353C291.044 161.57 290.219 161.837 289.543 162.122C288.197 162.68 287.44 163.195 287.409 163.139C287.397 163.121 287.577 162.984 287.924 162.755C288.091 162.637 288.308 162.5 288.569 162.364C288.829 162.227 289.115 162.054 289.462 161.911C290.132 161.595 290.969 161.303 291.918 161.061C292.873 160.844 293.946 160.689 295.081 160.664C296.216 160.658 297.289 160.782 298.251 160.975C299.206 161.185 300.056 161.452 300.732 161.756C301.079 161.886 301.37 162.054 301.637 162.184C301.904 162.314 302.121 162.444 302.288 162.556C302.636 162.779 302.822 162.91 302.809 162.928Z" fill="#263238"/>
<g opacity="0.3">
<path d="M251.709 217.292C254.233 213.614 255.164 210.147 256.516 205.892C258.519 199.572 259.083 192.433 262.228 186.597C264.082 183.16 266.266 179.631 269.485 177.43C272.629 175.277 273.094 172.548 273.032 165.155C275.278 165.18 277.653 163.443 277.938 163.139C279.47 161.496 280.581 158.878 280.692 157.973C279.117 159.685 276.487 162.532 276.487 162.532C276.487 162.532 270.787 163.592 270.868 163.555C270.725 166.396 270.725 168.889 270.582 171.736C270.582 171.736 259.648 183.34 258.798 185.672C257.948 188.004 251.703 217.286 251.703 217.286L251.709 217.292Z" fill="black"/>
</g>
<g opacity="0.3">
<path d="M292.31 289.728C306.166 263.499 310.476 229.008 309.651 196.154C309.651 196.154 305.676 236.085 304.33 242.944C302.996 249.748 292.31 289.735 292.31 289.735V289.728Z" fill="black"/>
</g>
<path d="M294.424 143.391C294.424 143.391 294.325 143.484 294.114 143.627C293.872 143.788 293.568 143.999 293.19 144.253C292.346 144.805 291.18 145.574 289.76 146.505C286.82 148.403 282.813 150.983 278.385 153.836C276.673 154.927 275.023 155.982 273.479 156.968H273.491C272.958 157.377 272.43 157.781 271.922 158.171C271.401 158.556 270.954 158.94 270.52 159.368C269.658 160.199 268.895 161.006 268.207 161.738L268.083 161.868L268.014 161.707C267.27 159.989 266.662 158.587 266.222 157.57C266.03 157.104 265.875 156.726 265.75 156.435C265.645 156.174 265.595 156.038 265.608 156.031C265.62 156.031 265.688 156.156 265.813 156.41C265.949 156.695 266.123 157.061 266.34 157.514C266.805 158.519 267.444 159.908 268.225 161.607L268.033 161.576C268.709 160.832 269.466 160.013 270.328 159.17C270.743 158.748 271.233 158.32 271.748 157.936C272.251 157.539 272.772 157.135 273.305 156.714V156.708C274.849 155.721 276.493 154.661 278.205 153.563C282.652 150.741 286.677 148.186 289.636 146.312C291.081 145.413 292.259 144.681 293.121 144.148C293.512 143.912 293.828 143.72 294.076 143.571C294.3 143.441 294.418 143.379 294.424 143.391Z" fill="#263238"/>
<path d="M237.221 114.755L229.475 113.849C226.355 117.019 222.342 119.394 217.703 120.536C204.361 123.817 190.896 115.661 187.615 102.319C184.334 88.9782 192.49 75.5129 205.831 72.2319C219.173 68.9509 232.638 77.1069 235.919 90.4481C237.29 96.0178 236.657 101.606 234.492 106.469V106.456L237.221 114.749V114.755Z" fill="white"/>
<path d="M237.221 114.755C237.221 114.755 237.153 114.563 237.029 114.209C236.905 113.843 236.725 113.31 236.489 112.621C236.018 111.22 235.329 109.167 234.43 106.487L234.566 106.512V106.524C234.529 106.555 234.479 106.562 234.448 106.537C234.417 106.512 234.411 106.475 234.424 106.444C235.72 103.473 236.861 99.2988 236.439 94.3555C236.334 93.1275 236.142 91.856 235.819 90.5721C235.441 89.3006 235.094 87.9733 234.498 86.6895C233.388 84.0969 231.769 81.5353 229.586 79.2715C227.415 77.0139 224.686 75.0663 221.554 73.7204C218.422 72.3683 214.886 71.624 211.239 71.6985C203.952 71.7791 196.267 75.5253 191.652 82.0998C189.32 85.4428 187.764 89.2758 187.305 93.1709C186.802 97.0597 187.243 100.961 188.446 104.484C189.637 108.013 191.659 111.108 194.071 113.595C196.496 116.082 199.337 117.955 202.271 119.177C205.205 120.411 208.225 121.001 211.072 121.088C211.425 121.088 211.779 121.094 212.133 121.1C212.486 121.112 212.833 121.112 213.175 121.069C213.863 121.007 214.539 120.951 215.203 120.889C216.511 120.629 217.789 120.442 218.974 120.064C223.743 118.631 227.192 116.051 229.425 113.8C229.443 113.781 229.462 113.775 229.487 113.781C231.986 114.091 233.909 114.333 235.218 114.494C235.869 114.575 236.359 114.643 236.706 114.687C237.041 114.73 237.221 114.761 237.221 114.761C237.221 114.761 237.06 114.749 236.731 114.718C236.39 114.681 235.9 114.631 235.261 114.563C233.934 114.42 231.992 114.209 229.462 113.93L229.524 113.911C227.297 116.2 223.836 118.824 219.036 120.294C217.845 120.684 216.555 120.877 215.234 121.143C214.564 121.205 213.882 121.267 213.187 121.336C212.84 121.379 212.486 121.385 212.133 121.373C211.779 121.373 211.419 121.373 211.06 121.36C208.182 121.28 205.13 120.697 202.153 119.456C199.182 118.222 196.298 116.337 193.842 113.825C191.392 111.313 189.339 108.18 188.13 104.602C186.908 101.042 186.455 97.0846 186.957 93.1399C187.422 89.1828 188.998 85.3001 191.361 81.9075C191.628 81.4733 191.956 81.095 192.279 80.7042L193.24 79.5382L194.301 78.4714C194.648 78.1117 195.002 77.7581 195.399 77.4542C195.783 77.1379 196.168 76.8216 196.546 76.5053C196.918 76.1765 197.359 75.9409 197.756 75.6555C198.171 75.3888 198.562 75.0911 198.99 74.8492C199.424 74.6198 199.852 74.3841 200.28 74.1546C203.735 72.3621 207.53 71.4132 211.227 71.3573C214.924 71.2829 218.509 72.0458 221.678 73.4227C224.853 74.7934 227.607 76.772 229.797 79.0606C231.999 81.3493 233.63 83.9542 234.74 86.5778C235.335 87.8803 235.683 89.22 236.061 90.5039C236.377 91.8064 236.57 93.0903 236.669 94.3307C237.072 99.3236 235.9 103.523 234.566 106.5L234.436 106.419V106.407C234.473 106.376 234.523 106.369 234.554 106.394C234.566 106.407 234.573 106.419 234.579 106.431C235.447 109.142 236.111 111.226 236.563 112.646C236.781 113.335 236.948 113.856 237.066 114.228C237.177 114.581 237.227 114.749 237.227 114.749L237.221 114.755Z" fill="#CBCBCB"/>
<path d="M200.311 96.9606L203.288 93.6672L209.602 98.7345L218.98 87.9673L222.05 90.9506L209.459 104.8L200.311 96.9606Z" fill="#4EE03C"/>
<path d="M200.311 96.9606L203.288 93.6672L209.602 98.7345L218.98 87.9673L222.05 90.9506L209.459 104.8L200.311 96.9606Z" fill="black" fill-opacity="0.2"/>
<path d="M168.97 116.907C170.093 116.764 171.743 116.56 173.889 116.293C173.907 116.293 173.926 116.293 173.938 116.312C175.855 118.247 178.814 120.455 182.901 121.683C183.912 122.012 185.01 122.167 186.132 122.39C186.703 122.439 187.28 122.489 187.875 122.545C188.167 122.582 188.471 122.582 188.768 122.576C189.066 122.576 189.37 122.57 189.68 122.564C192.117 122.489 194.71 121.981 197.228 120.926C197.873 120.653 198.512 120.349 199.145 120.008C198.952 119.934 198.76 119.866 198.568 119.785C195.659 118.575 192.831 116.727 190.418 114.265C188.018 111.803 186.002 108.732 184.817 105.228C183.62 101.736 183.174 97.8597 183.67 93.9895C184.123 90.113 185.667 86.3048 187.987 82.9804C188.247 82.5586 188.57 82.1803 188.886 81.8019L189.829 80.6607L190.232 80.2513C190.002 80.2389 189.767 80.2265 189.537 80.2203C186.411 80.1583 183.372 80.7971 180.693 81.9508C178.007 83.1044 175.669 84.7728 173.802 86.7079C171.935 88.6431 170.54 90.8449 169.591 93.0653C169.082 94.1631 168.784 95.3044 168.456 96.396C168.183 97.5 168.015 98.5854 167.922 99.6398C167.556 103.876 168.536 107.455 169.646 110.004C169.659 110.029 169.646 110.06 169.628 110.084C168.865 112.361 168.276 114.11 167.873 115.301C167.674 115.896 167.519 116.349 167.407 116.665C167.302 116.975 167.24 117.137 167.24 117.137C167.24 117.137 167.395 117.112 167.68 117.074C167.978 117.037 168.4 116.981 168.958 116.913L168.97 116.907Z" fill="#F5F5F5"/>
<path d="M168.971 116.907C168.971 116.907 168.828 116.938 168.536 116.982C168.239 117.025 167.811 117.087 167.253 117.168H167.197L167.215 117.118C167.693 115.667 168.493 113.26 169.554 110.054L169.578 110.016C169.578 110.016 169.578 110.054 169.566 110.016L169.523 109.917L169.436 109.712C169.38 109.576 169.324 109.44 169.268 109.297C169.157 109.018 169.051 108.726 168.946 108.429C168.735 107.833 168.549 107.207 168.381 106.549C168.053 105.234 167.817 103.795 167.761 102.263C167.699 100.732 167.798 99.1003 168.109 97.4257C168.251 96.5822 168.518 95.7449 168.772 94.9013C169.02 94.0454 169.38 93.1957 169.765 92.3646C171.315 89.0029 173.939 85.7653 177.524 83.4705C181.078 81.1694 185.58 79.8297 190.245 80.0902L190.598 80.1088L190.35 80.3569C190.226 80.4809 190.083 80.6236 189.947 80.7663L189.959 80.7539C187.112 83.9604 184.942 88.023 184.073 92.4886C182.913 98.6103 184.148 104.918 187.131 109.768C190.102 114.662 194.592 118.117 199.201 119.872L199.505 119.99L199.219 120.126C198.091 120.666 197.005 121.23 195.864 121.584C194.735 121.962 193.606 122.235 192.49 122.415C190.269 122.781 188.092 122.737 186.132 122.502H186.126C185.413 122.359 184.706 122.241 184.024 122.086C183.335 121.943 182.69 121.72 182.064 121.509C180.817 121.069 179.676 120.548 178.665 119.977C176.631 118.836 175.086 117.534 173.939 116.374C173.932 116.312 173.802 116.374 173.709 116.374C173.61 116.386 173.517 116.399 173.418 116.411C173.225 116.436 173.039 116.454 172.866 116.479C172.506 116.523 172.171 116.56 171.861 116.597C171.241 116.665 170.72 116.727 170.286 116.777C169.87 116.82 169.547 116.858 169.318 116.882C169.101 116.907 168.989 116.907 168.989 116.907C168.989 116.907 169.101 116.882 169.318 116.851C169.547 116.82 169.87 116.771 170.279 116.715C170.707 116.659 171.234 116.585 171.849 116.504C172.159 116.461 172.494 116.417 172.853 116.374C173.033 116.349 173.219 116.324 173.405 116.299C173.498 116.287 173.598 116.275 173.697 116.262L173.846 116.244C173.877 116.244 173.877 116.231 173.939 116.244C173.964 116.244 173.988 116.262 174.007 116.281L174.032 116.306C175.185 117.447 176.73 118.724 178.758 119.841C180.78 120.963 183.273 121.881 186.176 122.297H186.163C187.162 122.378 188.173 122.495 189.221 122.464C190.276 122.458 191.355 122.365 192.459 122.185C193.557 121.999 194.673 121.726 195.789 121.348C196.912 120.994 197.985 120.43 199.095 119.897L199.114 120.145C194.45 118.383 189.891 114.891 186.877 109.942C183.844 105.024 182.591 98.6413 183.763 92.439C184.644 87.8989 186.852 83.7992 189.724 80.5616H189.73V80.5492C189.872 80.4065 190.009 80.2701 190.133 80.146L190.238 80.4127C185.642 80.1522 181.202 81.4671 177.691 83.731C174.156 85.9886 171.557 89.1704 170.013 92.4886C169.622 93.3259 169.275 94.1447 169.02 94.9944C168.76 95.8441 168.499 96.6628 168.357 97.4877C168.04 99.1437 167.935 100.756 167.991 102.27C168.04 103.789 168.264 105.216 168.58 106.518C168.741 107.17 168.921 107.796 169.126 108.385C169.231 108.677 169.33 108.968 169.442 109.247C169.498 109.384 169.554 109.526 169.609 109.663L169.696 109.868L169.74 109.967C169.74 109.967 169.783 110.122 169.709 110.159L169.734 110.122C168.636 113.335 167.823 115.741 167.308 117.161L167.271 117.112C167.829 117.044 168.257 116.994 168.561 116.963C168.853 116.932 168.995 116.926 168.995 116.926L168.971 116.907Z" fill="#CBCBCB"/>
<defs>
<linearGradient id="paint0_linear_4_1581" x1="835.877" y1="-19.017" x2="764.378" y2="-301.77" gradientUnits="userSpaceOnUse">
<stop stop-color="#426CFB" stop-opacity="0.17"/>
<stop offset="0.244792" stop-color="#426CFB" stop-opacity="0.2"/>
</linearGradient>
</defs>
</svg>
